<?xml version="1.0" encoding="UTF-8" standalone="no"?>
<!-- Created with matplotlib (http://matplotlib.org/) -->

<svg
   xmlns:dc="http://purl.org/dc/elements/1.1/"
   xmlns:cc="http://creativecommons.org/ns#"
   xmlns:rdf="http://www.w3.org/1999/02/22-rdf-syntax-ns#"
   xmlns:svg="http://www.w3.org/2000/svg"
   xmlns="http://www.w3.org/2000/svg"
   xmlns:xlink="http://www.w3.org/1999/xlink"
   xmlns:sodipodi="http://sodipodi.sourceforge.net/DTD/sodipodi-0.dtd"
   xmlns:inkscape="http://www.inkscape.org/namespaces/inkscape"
   height="432pt"
   version="1.1"
   viewBox="0 0 576 432"
   width="576pt"
   id="svg2"
   inkscape:version="0.91 r13725"
   sodipodi:docname="BUFace6_Surprised.svg">
  <metadata
     id="metadata561">
    <rdf:RDF>
      <cc:Work
         rdf:about="">
        <dc:format>image/svg+xml</dc:format>
        <dc:type
           rdf:resource="http://purl.org/dc/dcmitype/StillImage" />
      </cc:Work>
    </rdf:RDF>
  </metadata>
  <sodipodi:namedview
     pagecolor="#ffffff"
     bordercolor="#666666"
     borderopacity="1"
     objecttolerance="10"
     gridtolerance="10"
     guidetolerance="10"
     inkscape:pageopacity="0"
     inkscape:pageshadow="2"
     inkscape:window-width="1180"
     inkscape:window-height="576"
     id="namedview559"
     showgrid="false"
     inkscape:zoom="0.58532728"
     inkscape:cx="341.53683"
     inkscape:cy="162.6658"
     inkscape:window-x="263"
     inkscape:window-y="385"
     inkscape:window-maximized="0"
     inkscape:current-layer="figure_1" />
  <defs
     id="defs4">
    <style
       type="text/css"
       id="style6">
*{stroke-linecap:butt;stroke-linejoin:round;stroke-miterlimit:100000;}
  </style>
  </defs>
  <g
     id="figure_1">
    <g
       id="axes_1">
      <g
         id="patch_2">
        <path
           d="M 72 388.8  L 518.4 388.8  L 518.4 43.2  L 72 43.2  z "
           style="fill:#ffffff;"
           id="path14" />
      </g>
      <g
         id="line2d_1">
        <path
           clip-path="url(#pec0cb6f6bd)"
           d="M 72 388.8  L 82.934169 380.143658  L 103.141763 364.453778  L 129.235332 344.494763  L 164.383741 317.929055  L 269.026019 239.007327  L 295.923339 218.381728  L 360.315621 168.7546  L 376.854953 156.454697  L 394.883678 143.335228  L 424.821952 121.90149  L 445.682649 106.847613  L 459.060304 96.946608  L 470.93701 87.875864  L 481.322031 79.638552  L 490.220614 72.281601  L 497.635352 65.888419  L 505.050302 59.205377  L 512.46619 52.175814  L 518.4 46.258407  L 518.4 46.258407  "
           style="fill:none;stroke:#0000ff;stroke-linecap:square;"
           id="path17" />
      </g>
      <g
         id="line2d_2">
        <path
           clip-path="url(#pec0cb6f6bd)"
           d="M 72 388.8  L 75.985714 385.741593  L 79.971429 382.683186  L 83.957143 379.624779  L 87.942857 376.566372  L 91.928571 373.507965  L 95.914286 370.449558  L 99.9 367.39115  L 103.885714 364.332743  L 107.871429 361.274336  L 111.857143 358.215929  L 115.842857 355.157522  L 119.828571 352.099115  L 123.814286 349.040708  L 127.8 345.982301  L 131.785714 342.923894  L 135.771429 339.865487  L 139.757143 336.80708  L 143.742857 333.748673  L 147.728571 330.690265  L 151.714286 327.631858  L 155.7 324.573451  L 159.685714 321.515044  L 163.671429 318.456637  L 167.657143 315.39823  L 171.642857 312.339823  L 175.628571 309.281416  L 179.614286 306.223009  L 183.6 303.164602  L 187.585714 300.106195  L 191.571429 297.047788  L 195.557143 293.989381  L 199.542857 290.930973  L 203.528571 287.872566  L 207.514286 284.814159  L 211.5 281.755752  L 215.485714 278.697345  L 219.471429 275.638938  L 223.457143 272.580531  L 227.442857 269.522124  L 231.428571 266.463717  L 235.414286 263.40531  L 239.4 260.346903  L 243.385714 257.288496  L 247.371429 254.230088  L 251.357143 251.171681  L 255.342857 248.113274  L 259.328571 245.054867  L 263.314286 241.99646  L 267.3 238.938053  L 271.285714 235.879646  L 275.271429 232.821239  L 279.257143 229.762832  L 283.242857 226.704425  L 287.228571 223.646018  L 291.214286 220.587611  L 295.2 217.529204  L 299.185714 214.470796  L 303.171429 211.412389  L 307.157143 208.353982  L 311.142857 205.295575  L 315.128571 202.237168  L 319.114286 199.178761  L 323.1 196.120354  L 327.085714 193.061947  L 331.071429 190.00354  L 335.057143 186.945133  L 339.042857 183.886726  L 343.028571 180.828319  L 347.014286 177.769912  L 351 174.711504  L 354.985714 171.653097  L 358.971429 168.59469  L 362.957143 165.536283  L 366.942857 162.477876  L 370.928571 159.419469  L 374.914286 156.361062  L 378.9 153.302655  L 382.885714 150.244248  L 386.871429 147.185841  L 390.857143 144.127434  L 394.842857 141.069027  L 398.828571 138.010619  L 402.814286 134.952212  L 406.8 131.893805  L 410.785714 128.835398  L 414.771429 125.776991  L 418.757143 122.718584  L 422.742857 119.660177  L 426.728571 116.60177  L 430.714286 113.543363  L 434.7 110.484956  L 438.685714 107.426549  L 442.671429 104.368142  L 446.657143 101.309735  L 450.642857 98.251327  L 454.628571 95.19292  L 458.614286 92.134513  L 462.6 89.076106  L 466.585714 86.017699  L 470.571429 82.959292  L 474.557143 79.900885  L 478.542857 76.842478  L 482.528571 73.784071  L 486.514286 70.725664  L 490.5 67.667257  L 494.485714 64.60885  L 498.471429 61.550442  L 502.457143 58.492035  L 506.442857 55.433628  L 510.428571 52.375221  L 514.414286 49.316814  L 518.4 46.258407  "
           style="fill:none;stroke:#008000;stroke-linecap:square;"
           id="path20" />
      </g>
      <g
         id="line2d_3">
        <path
           clip-path="url(#pec0cb6f6bd)"
           d="M 72 388.8  L 139.757143 336.80708  L 235.414286 336.80708  L 239.4 333.748673  L 243.385714 333.748673  L 251.357143 327.631858  L 255.342857 327.631858  L 259.328571 324.573451  L 267.3 324.573451  L 275.271429 318.456637  L 315.128571 318.456637  L 354.985714 287.872566  L 370.928571 287.872566  L 410.785714 257.288496  L 410.785714 232.821239  L 422.742857 223.646018  L 422.742857 205.295575  L 442.671429 190.00354  L 442.671429 119.660177  L 466.585714 101.309735  L 466.585714 95.19292  L 510.428571 61.550442  L 510.428571 52.375221  L 518.4 46.258407  L 518.4 46.258407  "
           style="fill:none;stroke:#ff0000;stroke-linecap:square;"
           id="path23" />
      </g>
      <g
         id="line2d_4">
        <path
           clip-path="url(#pec0cb6f6bd)"
           d="M 72 388.8  L 83.957143 379.624779  L 95.914286 379.624779  L 131.785714 352.099115  L 131.785714 349.040708  L 147.728571 336.80708  L 191.571429 336.80708  L 195.557143 333.748673  L 195.557143 297.047788  L 231.428571 269.522124  L 231.428571 266.463717  L 291.214286 220.587611  L 291.214286 208.353982  L 366.942857 150.244248  L 378.9 150.244248  L 382.885714 147.185841  L 386.871429 147.185841  L 406.8 131.893805  L 422.742857 131.893805  L 454.628571 107.426549  L 454.628571 104.368142  L 470.571429 92.134513  L 470.571429 86.017699  L 478.542857 79.900885  L 478.542857 76.842478  L 518.4 46.258407  L 518.4 46.258407  "
           style="fill:none;stroke:#00bfbf;stroke-linecap:square;"
           id="path26" />
      </g>
      <g
         id="line2d_5">
        <path
           clip-path="url(#pec0cb6f6bd)"
           d="M 72 388.8  L 75.985714 385.741593  L 79.971429 382.683186  L 83.957143 379.624779  L 87.942857 376.566372  L 91.928571 373.507965  L 95.914286 370.449558  L 99.9 367.39115  L 103.885714 364.332743  L 107.871429 361.274336  L 111.857143 358.215929  L 115.842857 355.157522  L 119.828571 352.099115  L 123.814286 349.040708  L 127.8 345.982301  L 131.785714 342.923894  L 135.771429 339.865487  L 139.757143 336.80708  L 143.742857 333.748673  L 147.728571 330.690265  L 151.714286 327.631858  L 155.7 324.573451  L 159.685714 321.515044  L 163.671429 318.456637  L 167.657143 315.39823  L 171.642857 312.339823  L 175.628571 309.281416  L 179.614286 306.223009  L 183.6 303.164602  L 187.585714 300.106195  L 191.571429 297.047788  L 195.557143 293.989381  L 199.542857 290.930973  L 203.528571 287.872566  L 207.514286 284.814159  L 211.5 281.755752  L 215.485714 278.697345  L 219.471429 275.638938  L 223.457143 272.580531  L 227.442857 269.522124  L 231.428571 266.463717  L 235.414286 263.40531  L 239.4 260.346903  L 243.385714 257.288496  L 247.371429 254.230088  L 251.357143 251.171681  L 255.342857 248.113274  L 259.328571 245.054867  L 263.314286 241.99646  L 267.3 238.938053  L 271.285714 235.879646  L 275.271429 232.821239  L 279.257143 229.762832  L 283.242857 226.704425  L 287.228571 223.646018  L 291.214286 220.587611  L 295.2 217.529204  L 299.185714 214.470796  L 303.171429 211.412389  L 307.157143 208.353982  L 311.142857 205.295575  L 315.128571 202.237168  L 319.114286 199.178761  L 323.1 196.120354  L 327.085714 193.061947  L 331.071429 190.00354  L 335.057143 186.945133  L 339.042857 183.886726  L 343.028571 180.828319  L 347.014286 177.769912  L 351 174.711504  L 354.985714 171.653097  L 358.971429 168.59469  L 362.957143 165.536283  L 366.942857 162.477876  L 370.928571 159.419469  L 374.914286 156.361062  L 378.9 153.302655  L 382.885714 150.244248  L 386.871429 147.185841  L 390.857143 144.127434  L 394.842857 141.069027  L 398.828571 138.010619  L 402.814286 134.952212  L 406.8 131.893805  L 410.785714 128.835398  L 414.771429 125.776991  L 418.757143 122.718584  L 422.742857 119.660177  L 426.728571 116.60177  L 430.714286 113.543363  L 434.7 110.484956  L 438.685714 107.426549  L 442.671429 104.368142  L 446.657143 101.309735  L 450.642857 98.251327  L 454.628571 95.19292  L 458.614286 92.134513  L 462.6 89.076106  L 466.585714 86.017699  L 470.571429 82.959292  L 474.557143 79.900885  L 478.542857 76.842478  L 482.528571 73.784071  L 486.514286 70.725664  L 490.5 67.667257  L 494.485714 64.60885  L 498.471429 61.550442  L 502.457143 58.492035  L 506.442857 55.433628  L 510.428571 52.375221  L 514.414286 49.316814  L 518.4 46.258407  "
           style="fill:none;stroke:#bf00bf;stroke-linecap:square;"
           id="path29" />
      </g>
      <g
         id="line2d_6">
        <path
           clip-path="url(#pec0cb6f6bd)"
           d="M 72 388.8  L 75.985714 385.741593  L 79.971429 382.683186  L 83.957143 379.624779  L 87.942857 376.566372  L 91.928571 373.507965  L 95.914286 370.449558  L 99.9 367.39115  L 103.885714 364.332743  L 107.871429 361.274336  L 111.857143 358.215929  L 115.842857 355.157522  L 119.828571 352.099115  L 123.814286 349.040708  L 127.8 345.982301  L 131.785714 342.923894  L 135.771429 339.865487  L 139.757143 336.80708  L 143.742857 333.748673  L 147.728571 330.690265  L 151.714286 327.631858  L 155.7 324.573451  L 159.685714 321.515044  L 163.671429 318.456637  L 167.657143 315.39823  L 171.642857 312.339823  L 175.628571 309.281416  L 179.614286 306.223009  L 183.6 303.164602  L 187.585714 300.106195  L 191.571429 297.047788  L 195.557143 293.989381  L 199.542857 290.930973  L 203.528571 287.872566  L 207.514286 284.814159  L 211.5 281.755752  L 215.485714 278.697345  L 219.471429 275.638938  L 223.457143 272.580531  L 227.442857 269.522124  L 231.428571 266.463717  L 235.414286 263.40531  L 239.4 260.346903  L 243.385714 257.288496  L 247.371429 254.230088  L 251.357143 251.171681  L 255.342857 248.113274  L 259.328571 245.054867  L 263.314286 241.99646  L 267.3 238.938053  L 271.285714 235.879646  L 275.271429 232.821239  L 279.257143 229.762832  L 283.242857 226.704425  L 287.228571 223.646018  L 291.214286 220.587611  L 295.2 217.529204  L 299.185714 214.470796  L 303.171429 211.412389  L 307.157143 208.353982  L 311.142857 205.295575  L 315.128571 202.237168  L 319.114286 199.178761  L 323.1 196.120354  L 327.085714 193.061947  L 331.071429 190.00354  L 335.057143 186.945133  L 339.042857 183.886726  L 343.028571 180.828319  L 347.014286 177.769912  L 351 174.711504  L 354.985714 171.653097  L 358.971429 168.59469  L 362.957143 165.536283  L 366.942857 162.477876  L 370.928571 159.419469  L 374.914286 156.361062  L 378.9 153.302655  L 382.885714 150.244248  L 386.871429 147.185841  L 390.857143 144.127434  L 394.842857 141.069027  L 398.828571 138.010619  L 402.814286 134.952212  L 406.8 131.893805  L 410.785714 128.835398  L 414.771429 125.776991  L 418.757143 122.718584  L 422.742857 119.660177  L 426.728571 116.60177  L 430.714286 113.543363  L 434.7 110.484956  L 438.685714 107.426549  L 442.671429 104.368142  L 446.657143 101.309735  L 450.642857 98.251327  L 454.628571 95.19292  L 458.614286 92.134513  L 462.6 89.076106  L 466.585714 86.017699  L 470.571429 82.959292  L 474.557143 79.900885  L 478.542857 76.842478  L 482.528571 73.784071  L 486.514286 70.725664  L 490.5 67.667257  L 494.485714 64.60885  L 498.471429 61.550442  L 502.457143 58.492035  L 506.442857 55.433628  L 510.428571 52.375221  L 514.414286 49.316814  L 518.4 46.258407  "
           style="fill:none;stroke:#bfbf00;stroke-linecap:square;"
           id="path32" />
      </g>
      <g
         id="line2d_7">
        <path
           clip-path="url(#pec0cb6f6bd)"
           d="M 72 388.8  L 75.985714 385.741593  L 123.814286 385.741593  L 135.771429 376.566372  L 139.757143 376.566372  L 155.7 364.332743  L 155.7 293.989381  L 215.485714 248.113274  L 223.457143 248.113274  L 271.285714 211.412389  L 311.142857 211.412389  L 319.114286 205.295575  L 323.1 205.295575  L 339.042857 193.061947  L 339.042857 193.061947  L 354.985714 193.061947  L 378.9 174.711504  L 378.9 128.835398  L 402.814286 110.484956  L 402.814286 89.076106  L 418.757143 76.842478  L 418.757143 58.492035  L 430.714286 49.316814  L 514.414286 49.316814  L 518.4 46.258407  L 518.4 46.258407  "
           style="fill:none;stroke:#000000;stroke-linecap:square;"
           id="path35" />
      </g>
      <g
         id="line2d_8">
        <path
           clip-path="url(#pec0cb6f6bd)"
           d="M 72 388.8  L 164.608641 385.714286  L 188.679576 382.628571  L 205.564773 379.542857  L 219.007054 376.457143  L 230.358549 373.371429  L 240.281069 370.285714  L 249.153957 367.2  L 257.217282 364.114286  L 264.633736 361.028571  L 271.519269 357.942857  L 277.959774 354.857143  L 284.020861 351.771429  L 289.75391 348.685714  L 295.2 345.6  L 300.392549 342.514286  L 305.359153 339.428571  L 310.122894 336.342857  L 314.703299 333.257143  L 319.117051 330.171429  L 323.378527 327.085714  L 327.500219 324  L 331.493055 320.914286  L 335.366657 317.828571  L 339.129546 314.742857  L 342.789309 311.657143  L 346.352735 308.571429  L 349.825923 305.485714  L 353.214378 302.4  L 356.523086 299.314286  L 359.75658 296.228571  L 362.918993 293.142857  L 366.014109 290.057143  L 369.045396 286.971429  L 372.016047 283.885714  L 374.929006 280.8  L 377.786996 277.714286  L 380.592538 274.628571  L 383.347974 271.542857  L 386.055484 268.457143  L 388.717098 265.371429  L 391.334713 262.285714  L 393.910104 259.2  L 396.444934 256.114286  L 398.940762 253.028571  L 401.399056 249.942857  L 403.821194 246.857143  L 406.208479 243.771429  L 408.562138 240.685714  L 410.883329 237.6  L 413.173151 234.514286  L 415.432642 231.428571  L 417.662786 228.342857  L 419.864519 225.257143  L 422.038729 222.171429  L 424.18626 219.085714  L 426.307915 216  L 428.40446 212.914286  L 430.476626 209.828571  L 432.525108 206.742857  L 434.550572 203.657143  L 436.553655 200.571429  L 438.534964 197.485714  L 440.495081 194.4  L 442.434564 191.314286  L 444.353949 188.228571  L 446.253747 185.142857  L 448.13445 182.057143  L 449.996533 178.971429  L 451.840447 175.885714  L 453.666631 172.8  L 455.475505 169.714286  L 457.267473 166.628571  L 459.042924 163.542857  L 460.802234 160.457143  L 462.545765 157.371429  L 464.273866 154.285714  L 465.986874 151.2  L 467.685114 148.114286  L 469.368901 145.028571  L 471.038538 141.942857  L 472.694319 138.857143  L 474.336527 135.771429  L 475.965437 132.685714  L 477.581316 129.6  L 479.184421 126.514286  L 480.775001 123.428571  L 482.353299 120.342857  L 483.919548 117.257143  L 485.473976 114.171429  L 487.016804 111.085714  L 488.548245 108  L 490.068508 104.914286  L 491.577793 101.828571  L 493.076298 98.742857  L 494.564213 95.657143  L 496.041722 92.571429  L 497.509006 89.485714  L 498.96624 86.4  L 500.413594 83.314286  L 501.851235 80.228571  L 503.279322 77.142857  L 504.698014 74.057143  L 506.107464 70.971429  L 507.507821 67.885714  L 508.899229 64.8  L 510.28183 61.714286  L 511.655764 58.628571  L 513.021163 55.542857  L 514.37816 52.457143  L 515.726882 49.371429  L 517.067455 46.285714  L 518.4 43.2  "
           style="fill:none;stroke:#000000;stroke-dasharray:6.000000,6.000000;stroke-dashoffset:0.0;stroke-width:4.0;"
           id="path38" />
      </g>
      <g
         id="patch_3">
        <path
           d="M 72 43.2  L 518.4 43.2  "
           style="fill:none;stroke:#000000;stroke-linecap:square;stroke-linejoin:miter;"
           id="path41" />
      </g>
      <g
         id="patch_4">
        <path
           d="M 518.4 388.8  L 518.4 43.2  "
           style="fill:none;stroke:#000000;stroke-linecap:square;stroke-linejoin:miter;"
           id="path44" />
      </g>
      <g
         id="patch_5">
        <path
           d="M 72 388.8  L 518.4 388.8  "
           style="fill:none;stroke:#000000;stroke-linecap:square;stroke-linejoin:miter;"
           id="path47" />
      </g>
      <g
         id="patch_6">
        <path
           d="M 72 388.8  L 72 43.2  "
           style="fill:none;stroke:#000000;stroke-linecap:square;stroke-linejoin:miter;"
           id="path50" />
      </g>
      <g
         id="matplotlib.axis_1">
        <g
           id="xtick_1">
          <g
             id="line2d_9">
            <defs
               id="defs55">
              <path
                 d="M 0 0  L 0 -4  "
                 id="m0def26db5d"
                 style="stroke:#000000;stroke-width:0.5;" />
            </defs>
            <g
               id="g58">
              <use
                 style="stroke:#000000;stroke-width:0.5;"
                 x="72.0"
                 xlink:href="#m0def26db5d"
                 y="388.8"
                 id="use60" />
            </g>
          </g>
          <g
             id="line2d_10">
            <defs
               id="defs63">
              <path
                 d="M 0 0  L 0 4  "
                 id="m10507d8de0"
                 style="stroke:#000000;stroke-width:0.5;" />
            </defs>
            <g
               id="g66">
              <use
                 style="stroke:#000000;stroke-width:0.5;"
                 x="72.0"
                 xlink:href="#m10507d8de0"
                 y="43.2"
                 id="use68" />
            </g>
          </g>
          <g
             id="text_1">
            <!-- 0 -->
            <defs
               id="defs71">
              <path
                 d="M 31.78125 66.40625  Q 24.171875 66.40625 20.328125 58.90625  Q 16.5 51.421875 16.5 36.375  Q 16.5 21.390625 20.328125 13.890625  Q 24.171875 6.390625 31.78125 6.390625  Q 39.453125 6.390625 43.28125 13.890625  Q 47.125 21.390625 47.125 36.375  Q 47.125 51.421875 43.28125 58.90625  Q 39.453125 66.40625 31.78125 66.40625  M 31.78125 74.21875  Q 44.046875 74.21875 50.515625 64.515625  Q 56.984375 54.828125 56.984375 36.375  Q 56.984375 17.96875 50.515625 8.265625  Q 44.046875 -1.421875 31.78125 -1.421875  Q 19.53125 -1.421875 13.0625 8.265625  Q 6.59375 17.96875 6.59375 36.375  Q 6.59375 54.828125 13.0625 64.515625  Q 19.53125 74.21875 31.78125 74.21875  "
                 id="BitstreamVeraSans-Roman-30" />
            </defs>
            <g
               transform="translate(68.1825 401.918125)scale(0.12 -0.12)"
               id="g74">
              <use
                 xlink:href="#BitstreamVeraSans-Roman-30"
                 id="use76" />
            </g>
          </g>
        </g>
        <g
           id="xtick_2">
          <g
             id="line2d_11">
            <g
               id="g80">
              <use
                 style="stroke:#000000;stroke-width:0.5;"
                 x="151.714285714"
                 xlink:href="#m0def26db5d"
                 y="388.8"
                 id="use82" />
            </g>
          </g>
          <g
             id="line2d_12">
            <g
               id="g85">
              <use
                 style="stroke:#000000;stroke-width:0.5;"
                 x="151.714285714"
                 xlink:href="#m10507d8de0"
                 y="43.2"
                 id="use87" />
            </g>
          </g>
          <g
             id="text_2">
            <!-- 20 -->
            <defs
               id="defs90">
              <path
                 d="M 19.1875 8.296875  L 53.609375 8.296875  L 53.609375 0  L 7.328125 0  L 7.328125 8.296875  Q 12.9375 14.109375 22.625 23.890625  Q 32.328125 33.6875 34.8125 36.53125  Q 39.546875 41.84375 41.421875 45.53125  Q 43.3125 49.21875 43.3125 52.78125  Q 43.3125 58.59375 39.234375 62.25  Q 35.15625 65.921875 28.609375 65.921875  Q 23.96875 65.921875 18.8125 64.3125  Q 13.671875 62.703125 7.8125 59.421875  L 7.8125 69.390625  Q 13.765625 71.78125 18.9375 73  Q 24.125 74.21875 28.421875 74.21875  Q 39.75 74.21875 46.484375 68.546875  Q 53.21875 62.890625 53.21875 53.421875  Q 53.21875 48.921875 51.53125 44.890625  Q 49.859375 40.875 45.40625 35.40625  Q 44.1875 33.984375 37.640625 27.21875  Q 31.109375 20.453125 19.1875 8.296875  "
                 id="BitstreamVeraSans-Roman-32" />
            </defs>
            <g
               transform="translate(144.079285714 401.918125)scale(0.12 -0.12)"
               id="g93">
              <use
                 xlink:href="#BitstreamVeraSans-Roman-32"
                 id="use95" />
              <use
                 x="63.623046875"
                 xlink:href="#BitstreamVeraSans-Roman-30"
                 id="use97" />
            </g>
          </g>
        </g>
        <g
           id="xtick_3">
          <g
             id="line2d_13">
            <g
               id="g101">
              <use
                 style="stroke:#000000;stroke-width:0.5;"
                 x="231.428571429"
                 xlink:href="#m0def26db5d"
                 y="388.8"
                 id="use103" />
            </g>
          </g>
          <g
             id="line2d_14">
            <g
               id="g106">
              <use
                 style="stroke:#000000;stroke-width:0.5;"
                 x="231.428571429"
                 xlink:href="#m10507d8de0"
                 y="43.2"
                 id="use108" />
            </g>
          </g>
          <g
             id="text_3">
            <!-- 40 -->
            <defs
               id="defs111">
              <path
                 d="M 37.796875 64.3125  L 12.890625 25.390625  L 37.796875 25.390625  z M 35.203125 72.90625  L 47.609375 72.90625  L 47.609375 25.390625  L 58.015625 25.390625  L 58.015625 17.1875  L 47.609375 17.1875  L 47.609375 0  L 37.796875 0  L 37.796875 17.1875  L 4.890625 17.1875  L 4.890625 26.703125  z "
                 id="BitstreamVeraSans-Roman-34" />
            </defs>
            <g
               transform="translate(223.793571429 401.918125)scale(0.12 -0.12)"
               id="g114">
              <use
                 xlink:href="#BitstreamVeraSans-Roman-34"
                 id="use116" />
              <use
                 x="63.623046875"
                 xlink:href="#BitstreamVeraSans-Roman-30"
                 id="use118" />
            </g>
          </g>
        </g>
        <g
           id="xtick_4">
          <g
             id="line2d_15">
            <g
               id="g122">
              <use
                 style="stroke:#000000;stroke-width:0.5;"
                 x="311.142857143"
                 xlink:href="#m0def26db5d"
                 y="388.8"
                 id="use124" />
            </g>
          </g>
          <g
             id="line2d_16">
            <g
               id="g127">
              <use
                 style="stroke:#000000;stroke-width:0.5;"
                 x="311.142857143"
                 xlink:href="#m10507d8de0"
                 y="43.2"
                 id="use129" />
            </g>
          </g>
          <g
             id="text_4">
            <!-- 60 -->
            <defs
               id="defs132">
              <path
                 d="M 33.015625 40.375  Q 26.375 40.375 22.484375 35.828125  Q 18.609375 31.296875 18.609375 23.390625  Q 18.609375 15.53125 22.484375 10.953125  Q 26.375 6.390625 33.015625 6.390625  Q 39.65625 6.390625 43.53125 10.953125  Q 47.40625 15.53125 47.40625 23.390625  Q 47.40625 31.296875 43.53125 35.828125  Q 39.65625 40.375 33.015625 40.375  M 52.59375 71.296875  L 52.59375 62.3125  Q 48.875 64.0625 45.09375 64.984375  Q 41.3125 65.921875 37.59375 65.921875  Q 27.828125 65.921875 22.671875 59.328125  Q 17.53125 52.734375 16.796875 39.40625  Q 19.671875 43.65625 24.015625 45.921875  Q 28.375 48.1875 33.59375 48.1875  Q 44.578125 48.1875 50.953125 41.515625  Q 57.328125 34.859375 57.328125 23.390625  Q 57.328125 12.15625 50.6875 5.359375  Q 44.046875 -1.421875 33.015625 -1.421875  Q 20.359375 -1.421875 13.671875 8.265625  Q 6.984375 17.96875 6.984375 36.375  Q 6.984375 53.65625 15.1875 63.9375  Q 23.390625 74.21875 37.203125 74.21875  Q 40.921875 74.21875 44.703125 73.484375  Q 48.484375 72.75 52.59375 71.296875  "
                 id="BitstreamVeraSans-Roman-36" />
            </defs>
            <g
               transform="translate(303.507857143 401.918125)scale(0.12 -0.12)"
               id="g135">
              <use
                 xlink:href="#BitstreamVeraSans-Roman-36"
                 id="use137" />
              <use
                 x="63.623046875"
                 xlink:href="#BitstreamVeraSans-Roman-30"
                 id="use139" />
            </g>
          </g>
        </g>
        <g
           id="xtick_5">
          <g
             id="line2d_17">
            <g
               id="g143">
              <use
                 style="stroke:#000000;stroke-width:0.5;"
                 x="390.857142857"
                 xlink:href="#m0def26db5d"
                 y="388.8"
                 id="use145" />
            </g>
          </g>
          <g
             id="line2d_18">
            <g
               id="g148">
              <use
                 style="stroke:#000000;stroke-width:0.5;"
                 x="390.857142857"
                 xlink:href="#m10507d8de0"
                 y="43.2"
                 id="use150" />
            </g>
          </g>
          <g
             id="text_5">
            <!-- 80 -->
            <defs
               id="defs153">
              <path
                 d="M 31.78125 34.625  Q 24.75 34.625 20.71875 30.859375  Q 16.703125 27.09375 16.703125 20.515625  Q 16.703125 13.921875 20.71875 10.15625  Q 24.75 6.390625 31.78125 6.390625  Q 38.8125 6.390625 42.859375 10.171875  Q 46.921875 13.96875 46.921875 20.515625  Q 46.921875 27.09375 42.890625 30.859375  Q 38.875 34.625 31.78125 34.625  M 21.921875 38.8125  Q 15.578125 40.375 12.03125 44.71875  Q 8.5 49.078125 8.5 55.328125  Q 8.5 64.0625 14.71875 69.140625  Q 20.953125 74.21875 31.78125 74.21875  Q 42.671875 74.21875 48.875 69.140625  Q 55.078125 64.0625 55.078125 55.328125  Q 55.078125 49.078125 51.53125 44.71875  Q 48 40.375 41.703125 38.8125  Q 48.828125 37.15625 52.796875 32.3125  Q 56.78125 27.484375 56.78125 20.515625  Q 56.78125 9.90625 50.3125 4.234375  Q 43.84375 -1.421875 31.78125 -1.421875  Q 19.734375 -1.421875 13.25 4.234375  Q 6.78125 9.90625 6.78125 20.515625  Q 6.78125 27.484375 10.78125 32.3125  Q 14.796875 37.15625 21.921875 38.8125  M 18.3125 54.390625  Q 18.3125 48.734375 21.84375 45.5625  Q 25.390625 42.390625 31.78125 42.390625  Q 38.140625 42.390625 41.71875 45.5625  Q 45.3125 48.734375 45.3125 54.390625  Q 45.3125 60.0625 41.71875 63.234375  Q 38.140625 66.40625 31.78125 66.40625  Q 25.390625 66.40625 21.84375 63.234375  Q 18.3125 60.0625 18.3125 54.390625  "
                 id="BitstreamVeraSans-Roman-38" />
            </defs>
            <g
               transform="translate(383.222142857 401.918125)scale(0.12 -0.12)"
               id="g156">
              <use
                 xlink:href="#BitstreamVeraSans-Roman-38"
                 id="use158" />
              <use
                 x="63.623046875"
                 xlink:href="#BitstreamVeraSans-Roman-30"
                 id="use160" />
            </g>
          </g>
        </g>
        <g
           id="xtick_6">
          <g
             id="line2d_19">
            <g
               id="g164">
              <use
                 style="stroke:#000000;stroke-width:0.5;"
                 x="470.571428571"
                 xlink:href="#m0def26db5d"
                 y="388.8"
                 id="use166" />
            </g>
          </g>
          <g
             id="line2d_20">
            <g
               id="g169">
              <use
                 style="stroke:#000000;stroke-width:0.5;"
                 x="470.571428571"
                 xlink:href="#m10507d8de0"
                 y="43.2"
                 id="use171" />
            </g>
          </g>
          <g
             id="text_6">
            <!-- 100 -->
            <defs
               id="defs174">
              <path
                 d="M 12.40625 8.296875  L 28.515625 8.296875  L 28.515625 63.921875  L 10.984375 60.40625  L 10.984375 69.390625  L 28.421875 72.90625  L 38.28125 72.90625  L 38.28125 8.296875  L 54.390625 8.296875  L 54.390625 0  L 12.40625 0  z "
                 id="BitstreamVeraSans-Roman-31" />
            </defs>
            <g
               transform="translate(459.118928571 401.918125)scale(0.12 -0.12)"
               id="g177">
              <use
                 xlink:href="#BitstreamVeraSans-Roman-31"
                 id="use179" />
              <use
                 x="63.623046875"
                 xlink:href="#BitstreamVeraSans-Roman-30"
                 id="use181" />
              <use
                 x="127.24609375"
                 xlink:href="#BitstreamVeraSans-Roman-30"
                 id="use183" />
            </g>
          </g>
        </g>
      </g>
      <g
         id="matplotlib.axis_2">
        <g
           id="ytick_1">
          <g
             id="line2d_21">
            <defs
               id="defs188">
              <path
                 d="M 0 0  L 4 0  "
                 id="mde44dd1ea2"
                 style="stroke:#000000;stroke-width:0.5;" />
            </defs>
            <g
               id="g191">
              <use
                 style="stroke:#000000;stroke-width:0.5;"
                 x="72.0"
                 xlink:href="#mde44dd1ea2"
                 y="388.8"
                 id="use193" />
            </g>
          </g>
          <g
             id="line2d_22">
            <defs
               id="defs196">
              <path
                 d="M 0 0  L -4 0  "
                 id="mcc933c374f"
                 style="stroke:#000000;stroke-width:0.5;" />
            </defs>
            <g
               id="g199">
              <use
                 style="stroke:#000000;stroke-width:0.5;"
                 x="518.4"
                 xlink:href="#mcc933c374f"
                 y="388.8"
                 id="use201" />
            </g>
          </g>
          <g
             id="text_7">
            <!-- 0 -->
            <g
               transform="translate(60.365 392.11125)scale(0.12 -0.12)"
               id="g204">
              <use
                 xlink:href="#BitstreamVeraSans-Roman-30"
                 id="use206" />
            </g>
          </g>
        </g>
        <g
           id="ytick_2">
          <g
             id="line2d_23">
            <g
               id="g210">
              <use
                 style="stroke:#000000;stroke-width:0.5;"
                 x="72.0"
                 xlink:href="#mde44dd1ea2"
                 y="327.631858407"
                 id="use212" />
            </g>
          </g>
          <g
             id="line2d_24">
            <g
               id="g215">
              <use
                 style="stroke:#000000;stroke-width:0.5;"
                 x="518.4"
                 xlink:href="#mcc933c374f"
                 y="327.631858407"
                 id="use217" />
            </g>
          </g>
          <g
             id="text_8">
            <!-- 20 -->
            <g
               transform="translate(52.73 330.943108407)scale(0.12 -0.12)"
               id="g220">
              <use
                 xlink:href="#BitstreamVeraSans-Roman-32"
                 id="use222" />
              <use
                 x="63.623046875"
                 xlink:href="#BitstreamVeraSans-Roman-30"
                 id="use224" />
            </g>
          </g>
        </g>
        <g
           id="ytick_3">
          <g
             id="line2d_25">
            <g
               id="g228">
              <use
                 style="stroke:#000000;stroke-width:0.5;"
                 x="72.0"
                 xlink:href="#mde44dd1ea2"
                 y="266.463716814"
                 id="use230" />
            </g>
          </g>
          <g
             id="line2d_26">
            <g
               id="g233">
              <use
                 style="stroke:#000000;stroke-width:0.5;"
                 x="518.4"
                 xlink:href="#mcc933c374f"
                 y="266.463716814"
                 id="use235" />
            </g>
          </g>
          <g
             id="text_9">
            <!-- 40 -->
            <g
               transform="translate(52.73 269.774966814)scale(0.12 -0.12)"
               id="g238">
              <use
                 xlink:href="#BitstreamVeraSans-Roman-34"
                 id="use240" />
              <use
                 x="63.623046875"
                 xlink:href="#BitstreamVeraSans-Roman-30"
                 id="use242" />
            </g>
          </g>
        </g>
        <g
           id="ytick_4">
          <g
             id="line2d_27">
            <g
               id="g246">
              <use
                 style="stroke:#000000;stroke-width:0.5;"
                 x="72.0"
                 xlink:href="#mde44dd1ea2"
                 y="205.295575221"
                 id="use248" />
            </g>
          </g>
          <g
             id="line2d_28">
            <g
               id="g251">
              <use
                 style="stroke:#000000;stroke-width:0.5;"
                 x="518.4"
                 xlink:href="#mcc933c374f"
                 y="205.295575221"
                 id="use253" />
            </g>
          </g>
          <g
             id="text_10">
            <!-- 60 -->
            <g
               transform="translate(52.73 208.606825221)scale(0.12 -0.12)"
               id="g256">
              <use
                 xlink:href="#BitstreamVeraSans-Roman-36"
                 id="use258" />
              <use
                 x="63.623046875"
                 xlink:href="#BitstreamVeraSans-Roman-30"
                 id="use260" />
            </g>
          </g>
        </g>
        <g
           id="ytick_5">
          <g
             id="line2d_29">
            <g
               id="g264">
              <use
                 style="stroke:#000000;stroke-width:0.5;"
                 x="72.0"
                 xlink:href="#mde44dd1ea2"
                 y="144.127433628"
                 id="use266" />
            </g>
          </g>
          <g
             id="line2d_30">
            <g
               id="g269">
              <use
                 style="stroke:#000000;stroke-width:0.5;"
                 x="518.4"
                 xlink:href="#mcc933c374f"
                 y="144.127433628"
                 id="use271" />
            </g>
          </g>
          <g
             id="text_11">
            <!-- 80 -->
            <g
               transform="translate(52.73 147.438683628)scale(0.12 -0.12)"
               id="g274">
              <use
                 xlink:href="#BitstreamVeraSans-Roman-38"
                 id="use276" />
              <use
                 x="63.623046875"
                 xlink:href="#BitstreamVeraSans-Roman-30"
                 id="use278" />
            </g>
          </g>
        </g>
        <g
           id="ytick_6">
          <g
             id="line2d_31">
            <g
               id="g282">
              <use
                 style="stroke:#000000;stroke-width:0.5;"
                 x="72.0"
                 xlink:href="#mde44dd1ea2"
                 y="82.9592920354"
                 id="use284" />
            </g>
          </g>
          <g
             id="line2d_32">
            <g
               id="g287">
              <use
                 style="stroke:#000000;stroke-width:0.5;"
                 x="518.4"
                 xlink:href="#mcc933c374f"
                 y="82.9592920354"
                 id="use289" />
            </g>
          </g>
          <g
             id="text_12">
            <!-- 100 -->
            <g
               transform="translate(45.095 86.2705420354)scale(0.12 -0.12)"
               id="g292">
              <use
                 xlink:href="#BitstreamVeraSans-Roman-31"
                 id="use294" />
              <use
                 x="63.623046875"
                 xlink:href="#BitstreamVeraSans-Roman-30"
                 id="use296" />
              <use
                 x="127.24609375"
                 xlink:href="#BitstreamVeraSans-Roman-30"
                 id="use298" />
            </g>
          </g>
        </g>
      </g>
      <g
         id="legend_1">
        <g
           id="patch_7">
          <path
             d="M 78 193.71  L 216.1875 193.71  L 216.1875 49.2  L 78 49.2  z "
             style="fill:#ffffff;stroke:#000000;stroke-linejoin:miter;"
             id="path302" />
        </g>
        <g
           id="line2d_33">
          <path
             d="M 86.4 58.918125  L 103.2 58.918125  "
             style="fill:none;stroke:#0000ff;stroke-linecap:square;"
             id="path305" />
        </g>
        <g
           id="line2d_34" />
        <g
           id="text_13">
          <!-- GTW 0.243 -->
          <defs
             id="defs309">
            <path
               id="BitstreamVeraSans-Roman-20" />
            <path
               d="M 40.578125 39.3125  Q 47.65625 37.796875 51.625 33  Q 55.609375 28.21875 55.609375 21.1875  Q 55.609375 10.40625 48.1875 4.484375  Q 40.765625 -1.421875 27.09375 -1.421875  Q 22.515625 -1.421875 17.65625 -0.515625  Q 12.796875 0.390625 7.625 2.203125  L 7.625 11.71875  Q 11.71875 9.328125 16.59375 8.109375  Q 21.484375 6.890625 26.8125 6.890625  Q 36.078125 6.890625 40.9375 10.546875  Q 45.796875 14.203125 45.796875 21.1875  Q 45.796875 27.640625 41.28125 31.265625  Q 36.765625 34.90625 28.71875 34.90625  L 20.21875 34.90625  L 20.21875 43.015625  L 29.109375 43.015625  Q 36.375 43.015625 40.234375 45.921875  Q 44.09375 48.828125 44.09375 54.296875  Q 44.09375 59.90625 40.109375 62.90625  Q 36.140625 65.921875 28.71875 65.921875  Q 24.65625 65.921875 20.015625 65.03125  Q 15.375 64.15625 9.8125 62.3125  L 9.8125 71.09375  Q 15.4375 72.65625 20.34375 73.4375  Q 25.25 74.21875 29.59375 74.21875  Q 40.828125 74.21875 47.359375 69.109375  Q 53.90625 64.015625 53.90625 55.328125  Q 53.90625 49.265625 50.4375 45.09375  Q 46.96875 40.921875 40.578125 39.3125  "
               id="BitstreamVeraSans-Roman-33" />
            <path
               d="M 59.515625 10.40625  L 59.515625 29.984375  L 43.40625 29.984375  L 43.40625 38.09375  L 69.28125 38.09375  L 69.28125 6.78125  Q 63.578125 2.734375 56.6875 0.65625  Q 49.8125 -1.421875 42 -1.421875  Q 24.90625 -1.421875 15.25 8.5625  Q 5.609375 18.5625 5.609375 36.375  Q 5.609375 54.25 15.25 64.234375  Q 24.90625 74.21875 42 74.21875  Q 49.125 74.21875 55.546875 72.453125  Q 61.96875 70.703125 67.390625 67.28125  L 67.390625 56.78125  Q 61.921875 61.421875 55.765625 63.765625  Q 49.609375 66.109375 42.828125 66.109375  Q 29.4375 66.109375 22.71875 58.640625  Q 16.015625 51.171875 16.015625 36.375  Q 16.015625 21.625 22.71875 14.15625  Q 29.4375 6.6875 42.828125 6.6875  Q 48.046875 6.6875 52.140625 7.59375  Q 56.25 8.5 59.515625 10.40625  "
               id="BitstreamVeraSans-Roman-47" />
            <path
               d="M 10.6875 12.40625  L 21 12.40625  L 21 0  L 10.6875 0  z "
               id="BitstreamVeraSans-Roman-2e" />
            <path
               d="M 3.328125 72.90625  L 13.28125 72.90625  L 28.609375 11.28125  L 43.890625 72.90625  L 54.984375 72.90625  L 70.3125 11.28125  L 85.59375 72.90625  L 95.609375 72.90625  L 77.296875 0  L 64.890625 0  L 49.515625 63.28125  L 33.984375 0  L 21.578125 0  z "
               id="BitstreamVeraSans-Roman-57" />
            <path
               d="M -0.296875 72.90625  L 61.375 72.90625  L 61.375 64.59375  L 35.5 64.59375  L 35.5 0  L 25.59375 0  L 25.59375 64.59375  L -0.296875 64.59375  z "
               id="BitstreamVeraSans-Roman-54" />
          </defs>
          <g
             transform="translate(116.4 63.118125)scale(0.12 -0.12)"
             id="g317">
            <use
               xlink:href="#BitstreamVeraSans-Roman-47"
               id="use319" />
            <use
               x="77.443359375"
               xlink:href="#BitstreamVeraSans-Roman-54"
               id="use321" />
            <use
               x="138.52734375"
               xlink:href="#BitstreamVeraSans-Roman-57"
               id="use323" />
            <use
               x="237.404296875"
               xlink:href="#BitstreamVeraSans-Roman-20"
               id="use325" />
            <use
               x="269.19140625"
               xlink:href="#BitstreamVeraSans-Roman-30"
               id="use327" />
            <use
               x="332.814453125"
               xlink:href="#BitstreamVeraSans-Roman-2e"
               id="use329" />
            <use
               x="364.6015625"
               xlink:href="#BitstreamVeraSans-Roman-32"
               id="use331" />
            <use
               x="428.224609375"
               xlink:href="#BitstreamVeraSans-Roman-34"
               id="use333" />
            <use
               x="491.84765625"
               xlink:href="#BitstreamVeraSans-Roman-33"
               id="use335" />
          </g>
        </g>
        <g
           id="line2d_35">
          <path
             d="M 86.4 76.531875  L 103.2 76.531875  "
             style="fill:none;stroke:#008000;stroke-linecap:square;"
             id="path338" />
        </g>
        <g
           id="line2d_36" />
        <g
           id="text_14">
          <!-- IBDTW 0.251 -->
          <defs
             id="defs342">
            <path
               d="M 19.671875 64.796875  L 19.671875 8.109375  L 31.59375 8.109375  Q 46.6875 8.109375 53.6875 14.9375  Q 60.6875 21.78125 60.6875 36.53125  Q 60.6875 51.171875 53.6875 57.984375  Q 46.6875 64.796875 31.59375 64.796875  z M 9.8125 72.90625  L 30.078125 72.90625  Q 51.265625 72.90625 61.171875 64.09375  Q 71.09375 55.28125 71.09375 36.53125  Q 71.09375 17.671875 61.125 8.828125  Q 51.171875 0 30.078125 0  L 9.8125 0  z "
               id="BitstreamVeraSans-Roman-44" />
            <path
               d="M 19.671875 34.8125  L 19.671875 8.109375  L 35.5 8.109375  Q 43.453125 8.109375 47.28125 11.40625  Q 51.125 14.703125 51.125 21.484375  Q 51.125 28.328125 47.28125 31.5625  Q 43.453125 34.8125 35.5 34.8125  z M 19.671875 64.796875  L 19.671875 42.828125  L 34.28125 42.828125  Q 41.5 42.828125 45.03125 45.53125  Q 48.578125 48.25 48.578125 53.8125  Q 48.578125 59.328125 45.03125 62.0625  Q 41.5 64.796875 34.28125 64.796875  z M 9.8125 72.90625  L 35.015625 72.90625  Q 46.296875 72.90625 52.390625 68.21875  Q 58.5 63.53125 58.5 54.890625  Q 58.5 48.1875 55.375 44.234375  Q 52.25 40.28125 46.1875 39.3125  Q 53.46875 37.75 57.5 32.78125  Q 61.53125 27.828125 61.53125 20.40625  Q 61.53125 10.640625 54.890625 5.3125  Q 48.25 0 35.984375 0  L 9.8125 0  z "
               id="BitstreamVeraSans-Roman-42" />
            <path
               d="M 9.8125 72.90625  L 19.671875 72.90625  L 19.671875 0  L 9.8125 0  z "
               id="BitstreamVeraSans-Roman-49" />
            <path
               d="M 10.796875 72.90625  L 49.515625 72.90625  L 49.515625 64.59375  L 19.828125 64.59375  L 19.828125 46.734375  Q 21.96875 47.46875 24.109375 47.828125  Q 26.265625 48.1875 28.421875 48.1875  Q 40.625 48.1875 47.75 41.5  Q 54.890625 34.8125 54.890625 23.390625  Q 54.890625 11.625 47.5625 5.09375  Q 40.234375 -1.421875 26.90625 -1.421875  Q 22.3125 -1.421875 17.546875 -0.640625  Q 12.796875 0.140625 7.71875 1.703125  L 7.71875 11.625  Q 12.109375 9.234375 16.796875 8.0625  Q 21.484375 6.890625 26.703125 6.890625  Q 35.15625 6.890625 40.078125 11.328125  Q 45.015625 15.765625 45.015625 23.390625  Q 45.015625 31 40.078125 35.4375  Q 35.15625 39.890625 26.703125 39.890625  Q 22.75 39.890625 18.8125 39.015625  Q 14.890625 38.140625 10.796875 36.28125  z "
               id="BitstreamVeraSans-Roman-35" />
          </defs>
          <g
             transform="translate(116.4 80.731875)scale(0.12 -0.12)"
             id="g348">
            <use
               xlink:href="#BitstreamVeraSans-Roman-49"
               id="use350" />
            <use
               x="29.4921875"
               xlink:href="#BitstreamVeraSans-Roman-42"
               id="use352" />
            <use
               x="98.095703125"
               xlink:href="#BitstreamVeraSans-Roman-44"
               id="use354" />
            <use
               x="175.09765625"
               xlink:href="#BitstreamVeraSans-Roman-54"
               id="use356" />
            <use
               x="236.181640625"
               xlink:href="#BitstreamVeraSans-Roman-57"
               id="use358" />
            <use
               x="335.05859375"
               xlink:href="#BitstreamVeraSans-Roman-20"
               id="use360" />
            <use
               x="366.845703125"
               xlink:href="#BitstreamVeraSans-Roman-30"
               id="use362" />
            <use
               x="430.46875"
               xlink:href="#BitstreamVeraSans-Roman-2e"
               id="use364" />
            <use
               x="462.255859375"
               xlink:href="#BitstreamVeraSans-Roman-32"
               id="use366" />
            <use
               x="525.87890625"
               xlink:href="#BitstreamVeraSans-Roman-35"
               id="use368" />
            <use
               x="589.501953125"
               xlink:href="#BitstreamVeraSans-Roman-31"
               id="use370" />
          </g>
        </g>
        <g
           id="line2d_37">
          <path
             d="M 86.4 94.145625  L 103.2 94.145625  "
             style="fill:none;stroke:#ff0000;stroke-linecap:square;"
             id="path373" />
        </g>
        <g
           id="line2d_38" />
        <g
           id="text_15">
          <!-- IBDTWN 0.0834 -->
          <defs
             id="defs377">
            <path
               d="M 9.8125 72.90625  L 23.09375 72.90625  L 55.421875 11.921875  L 55.421875 72.90625  L 64.984375 72.90625  L 64.984375 0  L 51.703125 0  L 19.390625 60.984375  L 19.390625 0  L 9.8125 0  z "
               id="BitstreamVeraSans-Roman-4e" />
          </defs>
          <g
             transform="translate(116.4 98.345625)scale(0.12 -0.12)"
             id="g380">
            <use
               xlink:href="#BitstreamVeraSans-Roman-49"
               id="use382" />
            <use
               x="29.4921875"
               xlink:href="#BitstreamVeraSans-Roman-42"
               id="use384" />
            <use
               x="98.095703125"
               xlink:href="#BitstreamVeraSans-Roman-44"
               id="use386" />
            <use
               x="175.09765625"
               xlink:href="#BitstreamVeraSans-Roman-54"
               id="use388" />
            <use
               x="236.181640625"
               xlink:href="#BitstreamVeraSans-Roman-57"
               id="use390" />
            <use
               x="335.05859375"
               xlink:href="#BitstreamVeraSans-Roman-4e"
               id="use392" />
            <use
               x="409.86328125"
               xlink:href="#BitstreamVeraSans-Roman-20"
               id="use394" />
            <use
               x="441.650390625"
               xlink:href="#BitstreamVeraSans-Roman-30"
               id="use396" />
            <use
               x="505.2734375"
               xlink:href="#BitstreamVeraSans-Roman-2e"
               id="use398" />
            <use
               x="537.060546875"
               xlink:href="#BitstreamVeraSans-Roman-30"
               id="use400" />
            <use
               x="600.68359375"
               xlink:href="#BitstreamVeraSans-Roman-38"
               id="use402" />
            <use
               x="664.306640625"
               xlink:href="#BitstreamVeraSans-Roman-33"
               id="use404" />
            <use
               x="727.9296875"
               xlink:href="#BitstreamVeraSans-Roman-34"
               id="use406" />
          </g>
        </g>
        <g
           id="line2d_39">
          <path
             d="M 86.4 111.759375  L 103.2 111.759375  "
             style="fill:none;stroke:#00bfbf;stroke-linecap:square;"
             id="path409" />
        </g>
        <g
           id="line2d_40" />
        <g
           id="text_16">
          <!-- CTW 0.241 -->
          <defs
             id="defs413">
            <path
               d="M 64.40625 67.28125  L 64.40625 56.890625  Q 59.421875 61.53125 53.78125 63.8125  Q 48.140625 66.109375 41.796875 66.109375  Q 29.296875 66.109375 22.65625 58.46875  Q 16.015625 50.828125 16.015625 36.375  Q 16.015625 21.96875 22.65625 14.328125  Q 29.296875 6.6875 41.796875 6.6875  Q 48.140625 6.6875 53.78125 8.984375  Q 59.421875 11.28125 64.40625 15.921875  L 64.40625 5.609375  Q 59.234375 2.09375 53.4375 0.328125  Q 47.65625 -1.421875 41.21875 -1.421875  Q 24.65625 -1.421875 15.125 8.703125  Q 5.609375 18.84375 5.609375 36.375  Q 5.609375 53.953125 15.125 64.078125  Q 24.65625 74.21875 41.21875 74.21875  Q 47.75 74.21875 53.53125 72.484375  Q 59.328125 70.75 64.40625 67.28125  "
               id="BitstreamVeraSans-Roman-43" />
          </defs>
          <g
             transform="translate(116.4 115.959375)scale(0.12 -0.12)"
             id="g416">
            <use
               xlink:href="#BitstreamVeraSans-Roman-43"
               id="use418" />
            <use
               x="69.82421875"
               xlink:href="#BitstreamVeraSans-Roman-54"
               id="use420" />
            <use
               x="130.908203125"
               xlink:href="#BitstreamVeraSans-Roman-57"
               id="use422" />
            <use
               x="229.78515625"
               xlink:href="#BitstreamVeraSans-Roman-20"
               id="use424" />
            <use
               x="261.572265625"
               xlink:href="#BitstreamVeraSans-Roman-30"
               id="use426" />
            <use
               x="325.1953125"
               xlink:href="#BitstreamVeraSans-Roman-2e"
               id="use428" />
            <use
               x="356.982421875"
               xlink:href="#BitstreamVeraSans-Roman-32"
               id="use430" />
            <use
               x="420.60546875"
               xlink:href="#BitstreamVeraSans-Roman-34"
               id="use432" />
            <use
               x="484.228515625"
               xlink:href="#BitstreamVeraSans-Roman-31"
               id="use434" />
          </g>
        </g>
        <g
           id="line2d_41">
          <path
             d="M 86.4 129.373125  L 103.2 129.373125  "
             style="fill:none;stroke:#bf00bf;stroke-linecap:square;"
             id="path437" />
        </g>
        <g
           id="line2d_42" />
        <g
           id="text_17">
          <!-- DTW 0.251 -->
          <g
             transform="translate(116.4 133.573125)scale(0.12 -0.12)"
             id="g441">
            <use
               xlink:href="#BitstreamVeraSans-Roman-44"
               id="use443" />
            <use
               x="77.001953125"
               xlink:href="#BitstreamVeraSans-Roman-54"
               id="use445" />
            <use
               x="138.0859375"
               xlink:href="#BitstreamVeraSans-Roman-57"
               id="use447" />
            <use
               x="236.962890625"
               xlink:href="#BitstreamVeraSans-Roman-20"
               id="use449" />
            <use
               x="268.75"
               xlink:href="#BitstreamVeraSans-Roman-30"
               id="use451" />
            <use
               x="332.373046875"
               xlink:href="#BitstreamVeraSans-Roman-2e"
               id="use453" />
            <use
               x="364.16015625"
               xlink:href="#BitstreamVeraSans-Roman-32"
               id="use455" />
            <use
               x="427.783203125"
               xlink:href="#BitstreamVeraSans-Roman-35"
               id="use457" />
            <use
               x="491.40625"
               xlink:href="#BitstreamVeraSans-Roman-31"
               id="use459" />
          </g>
        </g>
        <g
           id="line2d_43">
          <path
             d="M 86.4 146.986875  L 103.2 146.986875  "
             style="fill:none;stroke:#bfbf00;stroke-linecap:square;"
             id="path462" />
        </g>
        <g
           id="line2d_44" />
        <g
           id="text_18">
          <!-- DDTW 0.251 -->
          <g
             transform="translate(116.4 151.186875)scale(0.12 -0.12)"
             id="g466">
            <use
               xlink:href="#BitstreamVeraSans-Roman-44"
               id="use468" />
            <use
               x="77.001953125"
               xlink:href="#BitstreamVeraSans-Roman-44"
               id="use470" />
            <use
               x="154.00390625"
               xlink:href="#BitstreamVeraSans-Roman-54"
               id="use472" />
            <use
               x="215.087890625"
               xlink:href="#BitstreamVeraSans-Roman-57"
               id="use474" />
            <use
               x="313.96484375"
               xlink:href="#BitstreamVeraSans-Roman-20"
               id="use476" />
            <use
               x="345.751953125"
               xlink:href="#BitstreamVeraSans-Roman-30"
               id="use478" />
            <use
               x="409.375"
               xlink:href="#BitstreamVeraSans-Roman-2e"
               id="use480" />
            <use
               x="441.162109375"
               xlink:href="#BitstreamVeraSans-Roman-32"
               id="use482" />
            <use
               x="504.78515625"
               xlink:href="#BitstreamVeraSans-Roman-35"
               id="use484" />
            <use
               x="568.408203125"
               xlink:href="#BitstreamVeraSans-Roman-31"
               id="use486" />
          </g>
        </g>
        <g
           id="line2d_45">
          <path
             d="M 86.4 164.600625  L 103.2 164.600625  "
             style="fill:none;stroke:#000000;stroke-linecap:square;"
             id="path489" />
        </g>
        <g
           id="line2d_46" />
        <g
           id="text_19">
          <!-- IMW 0.283 -->
          <defs
             id="defs493">
            <path
               d="M 9.8125 72.90625  L 24.515625 72.90625  L 43.109375 23.296875  L 61.8125 72.90625  L 76.515625 72.90625  L 76.515625 0  L 66.890625 0  L 66.890625 64.015625  L 48.09375 14.015625  L 38.1875 14.015625  L 19.390625 64.015625  L 19.390625 0  L 9.8125 0  z "
               id="BitstreamVeraSans-Roman-4d" />
          </defs>
          <g
             transform="translate(116.4 168.800625)scale(0.12 -0.12)"
             id="g496">
            <use
               xlink:href="#BitstreamVeraSans-Roman-49"
               id="use498" />
            <use
               x="29.4921875"
               xlink:href="#BitstreamVeraSans-Roman-4d"
               id="use500" />
            <use
               x="115.771484375"
               xlink:href="#BitstreamVeraSans-Roman-57"
               id="use502" />
            <use
               x="214.6484375"
               xlink:href="#BitstreamVeraSans-Roman-20"
               id="use504" />
            <use
               x="246.435546875"
               xlink:href="#BitstreamVeraSans-Roman-30"
               id="use506" />
            <use
               x="310.05859375"
               xlink:href="#BitstreamVeraSans-Roman-2e"
               id="use508" />
            <use
               x="341.845703125"
               xlink:href="#BitstreamVeraSans-Roman-32"
               id="use510" />
            <use
               x="405.46875"
               xlink:href="#BitstreamVeraSans-Roman-38"
               id="use512" />
            <use
               x="469.091796875"
               xlink:href="#BitstreamVeraSans-Roman-33"
               id="use514" />
          </g>
        </g>
        <g
           id="line2d_47">
          <path
             d="M 86.4 182.214375  L 103.2 182.214375  "
             style="fill:none;stroke:#000000;stroke-dasharray:6.000000,6.000000;stroke-dashoffset:0.0;stroke-width:4.0;"
             id="path517" />
        </g>
        <g
           id="line2d_48" />
        <g
           id="text_20">
          <!-- GroundTruth -->
          <defs
             id="defs521">
            <path
               d="M 54.890625 33.015625  L 54.890625 0  L 45.90625 0  L 45.90625 32.71875  Q 45.90625 40.484375 42.875 44.328125  Q 39.84375 48.1875 33.796875 48.1875  Q 26.515625 48.1875 22.3125 43.546875  Q 18.109375 38.921875 18.109375 30.90625  L 18.109375 0  L 9.078125 0  L 9.078125 54.6875  L 18.109375 54.6875  L 18.109375 46.1875  Q 21.34375 51.125 25.703125 53.5625  Q 30.078125 56 35.796875 56  Q 45.21875 56 50.046875 50.171875  Q 54.890625 44.34375 54.890625 33.015625  "
               id="BitstreamVeraSans-Roman-6e" />
            <path
               d="M 30.609375 48.390625  Q 23.390625 48.390625 19.1875 42.75  Q 14.984375 37.109375 14.984375 27.296875  Q 14.984375 17.484375 19.15625 11.84375  Q 23.34375 6.203125 30.609375 6.203125  Q 37.796875 6.203125 41.984375 11.859375  Q 46.1875 17.53125 46.1875 27.296875  Q 46.1875 37.015625 41.984375 42.703125  Q 37.796875 48.390625 30.609375 48.390625  M 30.609375 56  Q 42.328125 56 49.015625 48.375  Q 55.71875 40.765625 55.71875 27.296875  Q 55.71875 13.875 49.015625 6.21875  Q 42.328125 -1.421875 30.609375 -1.421875  Q 18.84375 -1.421875 12.171875 6.21875  Q 5.515625 13.875 5.515625 27.296875  Q 5.515625 40.765625 12.171875 48.375  Q 18.84375 56 30.609375 56  "
               id="BitstreamVeraSans-Roman-6f" />
            <path
               d="M 54.890625 33.015625  L 54.890625 0  L 45.90625 0  L 45.90625 32.71875  Q 45.90625 40.484375 42.875 44.328125  Q 39.84375 48.1875 33.796875 48.1875  Q 26.515625 48.1875 22.3125 43.546875  Q 18.109375 38.921875 18.109375 30.90625  L 18.109375 0  L 9.078125 0  L 9.078125 75.984375  L 18.109375 75.984375  L 18.109375 46.1875  Q 21.34375 51.125 25.703125 53.5625  Q 30.078125 56 35.796875 56  Q 45.21875 56 50.046875 50.171875  Q 54.890625 44.34375 54.890625 33.015625  "
               id="BitstreamVeraSans-Roman-68" />
            <path
               d="M 45.40625 46.390625  L 45.40625 75.984375  L 54.390625 75.984375  L 54.390625 0  L 45.40625 0  L 45.40625 8.203125  Q 42.578125 3.328125 38.25 0.953125  Q 33.9375 -1.421875 27.875 -1.421875  Q 17.96875 -1.421875 11.734375 6.484375  Q 5.515625 14.40625 5.515625 27.296875  Q 5.515625 40.1875 11.734375 48.09375  Q 17.96875 56 27.875 56  Q 33.9375 56 38.25 53.625  Q 42.578125 51.265625 45.40625 46.390625  M 14.796875 27.296875  Q 14.796875 17.390625 18.875 11.75  Q 22.953125 6.109375 30.078125 6.109375  Q 37.203125 6.109375 41.296875 11.75  Q 45.40625 17.390625 45.40625 27.296875  Q 45.40625 37.203125 41.296875 42.84375  Q 37.203125 48.484375 30.078125 48.484375  Q 22.953125 48.484375 18.875 42.84375  Q 14.796875 37.203125 14.796875 27.296875  "
               id="BitstreamVeraSans-Roman-64" />
            <path
               d="M 18.3125 70.21875  L 18.3125 54.6875  L 36.8125 54.6875  L 36.8125 47.703125  L 18.3125 47.703125  L 18.3125 18.015625  Q 18.3125 11.328125 20.140625 9.421875  Q 21.96875 7.515625 27.59375 7.515625  L 36.8125 7.515625  L 36.8125 0  L 27.59375 0  Q 17.1875 0 13.234375 3.875  Q 9.28125 7.765625 9.28125 18.015625  L 9.28125 47.703125  L 2.6875 47.703125  L 2.6875 54.6875  L 9.28125 54.6875  L 9.28125 70.21875  z "
               id="BitstreamVeraSans-Roman-74" />
            <path
               d="M 8.5 21.578125  L 8.5 54.6875  L 17.484375 54.6875  L 17.484375 21.921875  Q 17.484375 14.15625 20.5 10.265625  Q 23.53125 6.390625 29.59375 6.390625  Q 36.859375 6.390625 41.078125 11.03125  Q 45.3125 15.671875 45.3125 23.6875  L 45.3125 54.6875  L 54.296875 54.6875  L 54.296875 0  L 45.3125 0  L 45.3125 8.40625  Q 42.046875 3.421875 37.71875 1  Q 33.40625 -1.421875 27.6875 -1.421875  Q 18.265625 -1.421875 13.375 4.4375  Q 8.5 10.296875 8.5 21.578125  "
               id="BitstreamVeraSans-Roman-75" />
            <path
               d="M 41.109375 46.296875  Q 39.59375 47.171875 37.8125 47.578125  Q 36.03125 48 33.890625 48  Q 26.265625 48 22.1875 43.046875  Q 18.109375 38.09375 18.109375 28.8125  L 18.109375 0  L 9.078125 0  L 9.078125 54.6875  L 18.109375 54.6875  L 18.109375 46.1875  Q 20.953125 51.171875 25.484375 53.578125  Q 30.03125 56 36.53125 56  Q 37.453125 56 38.578125 55.875  Q 39.703125 55.765625 41.0625 55.515625  z "
               id="BitstreamVeraSans-Roman-72" />
          </defs>
          <g
             transform="translate(116.4 186.414375)scale(0.12 -0.12)"
             id="g530">
            <use
               xlink:href="#BitstreamVeraSans-Roman-47"
               id="use532" />
            <use
               x="77.490234375"
               xlink:href="#BitstreamVeraSans-Roman-72"
               id="use534" />
            <use
               x="118.572265625"
               xlink:href="#BitstreamVeraSans-Roman-6f"
               id="use536" />
            <use
               x="179.75390625"
               xlink:href="#BitstreamVeraSans-Roman-75"
               id="use538" />
            <use
               x="243.1328125"
               xlink:href="#BitstreamVeraSans-Roman-6e"
               id="use540" />
            <use
               x="306.51171875"
               xlink:href="#BitstreamVeraSans-Roman-64"
               id="use542" />
            <use
               x="369.98828125"
               xlink:href="#BitstreamVeraSans-Roman-54"
               id="use544" />
            <use
               x="430.853515625"
               xlink:href="#BitstreamVeraSans-Roman-72"
               id="use546" />
            <use
               x="471.966796875"
               xlink:href="#BitstreamVeraSans-Roman-75"
               id="use548" />
            <use
               x="535.345703125"
               xlink:href="#BitstreamVeraSans-Roman-74"
               id="use550" />
            <use
               x="574.5546875"
               xlink:href="#BitstreamVeraSans-Roman-68"
               id="use552" />
          </g>
        </g>
      </g>
    </g>
    <text
       xml:space="preserve"
       style="font-style:normal;font-weight:normal;font-size:24px;line-height:125%;font-family:sans-serif;letter-spacing:0px;word-spacing:0px;fill:#000000;fill-opacity:1;stroke:none;stroke-width:1px;stroke-linecap:butt;stroke-linejoin:miter;stroke-miterlimit:100000;stroke-opacity:1"
       x="181.69128"
       y="29.959732"
       id="text4689"
       sodipodi:linespacing="125%"><tspan
         sodipodi:role="line"
         id="tspan4691"
         style="font-size:20px;stroke-linecap:butt;stroke-linejoin:round;stroke-miterlimit:100000"
         x="181.69128"
         y="29.959732">BU4D Face 6 &quot;Surprised&quot;</tspan></text>
    <text
       xml:space="preserve"
       style="font-style:normal;font-weight:normal;font-size:24px;line-height:125%;font-family:sans-serif;letter-spacing:0px;word-spacing:0px;fill:#000000;fill-opacity:1;stroke:none;stroke-width:1px;stroke-linecap:butt;stroke-linejoin:miter;stroke-miterlimit:100000;stroke-opacity:1"
       x="230.98189"
       y="422.43268"
       id="text4693"
       sodipodi:linespacing="125%"><tspan
         sodipodi:role="line"
         id="tspan4695"
         style="font-size:16px;stroke-linecap:butt;stroke-linejoin:round;stroke-miterlimit:100000"
         x="230.98189"
         y="422.43268">2D Features</tspan></text>
    <text
       xml:space="preserve"
       style="font-style:normal;font-weight:normal;font-size:24px;line-height:125%;font-family:sans-serif;letter-spacing:0px;word-spacing:0px;fill:#000000;fill-opacity:1;stroke:none;stroke-width:1px;stroke-linecap:butt;stroke-linejoin:miter;stroke-miterlimit:100000;stroke-opacity:1"
       x="-260.51819"
       y="38.346344"
       id="text4697"
       sodipodi:linespacing="125%"
       transform="matrix(0,-1,1,0,0,0)"><tspan
         sodipodi:role="line"
         id="tspan4699"
         style="font-size:16px;stroke-linecap:butt;stroke-linejoin:round;stroke-miterlimit:100000"
         x="-260.51819"
         y="38.346344">3D Features</tspan></text>
  </g>
  <defs
     id="defs554">
    <clipPath
       id="pec0cb6f6bd">
      <rect
         height="345.6"
         width="446.4"
         x="72.0"
         y="43.2"
         id="rect557" />
    </clipPath>
  </defs>
</svg>
