<?xml version="1.0" encoding="UTF-8" standalone="no"?>
<!-- Created with matplotlib (http://matplotlib.org/) -->

<svg
   xmlns:dc="http://purl.org/dc/elements/1.1/"
   xmlns:cc="http://creativecommons.org/ns#"
   xmlns:rdf="http://www.w3.org/1999/02/22-rdf-syntax-ns#"
   xmlns:svg="http://www.w3.org/2000/svg"
   xmlns="http://www.w3.org/2000/svg"
   xmlns:xlink="http://www.w3.org/1999/xlink"
   xmlns:sodipodi="http://sodipodi.sourceforge.net/DTD/sodipodi-0.dtd"
   xmlns:inkscape="http://www.inkscape.org/namespaces/inkscape"
   height="432pt"
   version="1.1"
   viewBox="0 0 576 432"
   width="576pt"
   id="svg2"
   inkscape:version="0.91 r13725"
   sodipodi:docname="ExampleWarpingPathDict.svg">
  <metadata
     id="metadata370">
    <rdf:RDF>
      <cc:Work
         rdf:about="">
        <dc:format>image/svg+xml</dc:format>
        <dc:type
           rdf:resource="http://purl.org/dc/dcmitype/StillImage" />
      </cc:Work>
    </rdf:RDF>
  </metadata>
  <sodipodi:namedview
     pagecolor="#ffffff"
     bordercolor="#666666"
     borderopacity="1"
     objecttolerance="10"
     gridtolerance="10"
     guidetolerance="10"
     inkscape:pageopacity="0"
     inkscape:pageshadow="2"
     inkscape:window-width="1721"
     inkscape:window-height="975"
     id="namedview368"
     showgrid="false"
     inkscape:zoom="1.1706546"
     inkscape:cx="570.14683"
     inkscape:cy="293.55159"
     inkscape:window-x="65"
     inkscape:window-y="24"
     inkscape:window-maximized="0"
     inkscape:current-layer="axes_1" />
  <defs
     id="defs4">
    <style
       type="text/css"
       id="style6">
*{stroke-linecap:butt;stroke-linejoin:round;stroke-miterlimit:100000;}
  </style>
  </defs>
  <g
     id="figure_1">
    <g
       id="patch_1">
      <path
         d="M 0 432  L 576 432  L 576 0  L 0 0  z "
         style="fill:#ffffff;"
         id="path10" />
    </g>
    <g
       id="axes_1">
      <g
         id="patch_2">
        <path
           d="M 72 388.8  L 518.4 388.8  L 518.4 43.2  L 72 43.2  z "
           style="fill:#ffffff;"
           id="path14" />
      </g>
      <g
         id="line2d_1">
        <path
           clip-path="url(#pf432fca413)"
           d="M 72 388.8  L 74.232 370.256886  L 76.464 363.445442  L 78.696 358.241903  L 80.928 353.914514  L 83.16 350.164621  L 85.392 346.831415  L 87.624 343.81563  L 89.856 341.050681  L 94.32 336.096472  L 98.784 331.71534  L 103.248 327.753449  L 107.712 324.109182  L 112.176 320.711173  L 118.872 315.964411  L 125.568 311.52686  L 134.496 305.934403  L 145.656 299.247162  L 174.672 282.039667  L 185.832 275.10054  L 194.76 269.323445  L 203.688 263.322168  L 212.616 257.094716  L 223.776 249.021975  L 237.168 239.023208  L 263.952 218.901323  L 275.112 210.875775  L 284.04 204.749224  L 292.968 198.939146  L 299.664 194.809217  L 306.36 190.882547  L 313.056 187.160732  L 319.752 183.640733  L 326.448 180.315631  L 335.376 176.167718  L 344.304 172.318548  L 353.232 168.734018  L 362.16 165.377955  L 373.32 161.44847  L 384.48 157.74893  L 400.104 152.828516  L 440.28 140.380466  L 451.44 136.624969  L 460.368 133.383779  L 467.064 130.751118  L 473.76 127.877641  L 478.224 125.783996  L 482.688 123.503063  L 487.152 120.9782  L 491.616 118.12471  L 493.848 116.535472  L 496.08 114.807247  L 498.312 112.907015  L 500.544 110.788619  L 502.776 108.384703  L 505.008 105.591348  L 507.24 102.235545  L 509.472 97.99599  L 511.704 92.16265  L 513.936 82.547705  L 516.168 43.2  L 516.168 43.2  "
           style="fill:none;stroke:#0000ff;stroke-linecap:square;"
           id="path17" />
      </g>
      <g
         id="line2d_2">
        <path
           clip-path="url(#pf432fca413)"
           d="M 72 388.8  L 74.232 329.604407  L 76.464 314.218226  L 78.696 303.425182  L 80.928 294.832854  L 83.16 287.57696  L 85.392 281.234469  L 87.624 275.562904  L 89.856 270.408814  L 92.088 265.668205  L 94.32 261.266961  L 96.552 257.15018  L 101.016 249.611349  L 105.48 242.811114  L 109.944 236.591462  L 114.408 230.842382  L 118.872 225.483848  L 123.336 220.455608  L 127.8 215.711036  L 132.264 211.213221  L 138.96 204.865529  L 145.656 198.928103  L 152.352 193.340459  L 159.048 188.055228  L 165.744 183.034542  L 172.44 178.247592  L 181.368 172.185229  L 190.296 166.444438  L 199.224 160.985694  L 208.152 155.776715  L 217.08 150.790755  L 228.24 144.838073  L 239.4 139.162516  L 250.56 133.733922  L 261.72 128.527061  L 275.112 122.541689  L 288.504 116.813956  L 301.896 111.317808  L 317.52 105.169061  L 333.144 99.275939  L 348.768 93.613424  L 366.624 87.397152  L 384.48 81.427233  L 402.336 75.680621  L 422.424 69.458085  L 442.512 63.469033  L 464.832 57.063241  L 487.152 50.895722  L 509.472 44.945484  L 516.168 43.2  L 516.168 43.2  "
           style="fill:none;stroke:#008000;stroke-dasharray:6.000000,6.000000;stroke-dashoffset:0.0;"
           id="path20" />
      </g>
      <g
         id="line2d_3">
        <path
           clip-path="url(#pf432fca413)"
           d="M 72 388.8  L 80.928 387.418159  L 87.624 386.192689  L 94.32 384.77872  L 101.016 383.149236  L 107.712 381.274007  L 114.408 379.119439  L 121.104 376.648487  L 125.568 374.805572  L 130.032 372.791321  L 134.496 370.592335  L 138.96 368.19468  L 143.424 365.583977  L 147.888 362.745526  L 152.352 359.664449  L 156.816 356.325878  L 161.28 352.715172  L 165.744 348.818178  L 170.208 344.62153  L 174.672 340.112985  L 179.136 335.281792  L 183.6 330.119095  L 188.064 324.618352  L 192.528 318.775771  L 196.992 312.590731  L 201.456 306.066186  L 205.92 299.209033  L 210.384 292.030408  L 214.848 284.545902  L 221.544 272.790949  L 228.24 260.481236  L 234.936 247.725277  L 243.864 230.244587  L 263.952 190.611446  L 270.648 177.830069  L 277.344 165.487007  L 284.04 153.692113  L 288.504 146.178051  L 292.968 138.968061  L 297.432 132.078188  L 301.896 125.520005  L 306.36 119.300818  L 310.824 113.423963  L 315.288 107.889159  L 319.752 102.692909  L 324.216 97.828929  L 328.68 93.288575  L 333.144 89.061267  L 337.608 85.134894  L 342.072 81.496185  L 346.536 78.131053  L 351 75.024894  L 355.464 72.162851  L 359.928 69.53004  L 364.392 67.111732  L 368.856 64.893515  L 373.32 62.861403  L 377.784 61.00194  L 384.48 58.508495  L 391.176 56.334026  L 397.872 54.441257  L 404.568 52.796367  L 411.264 51.368906  L 417.96 50.131648  L 426.888 48.736411  L 435.816 47.586818  L 444.744 46.640868  L 455.904 45.691699  L 469.296 44.822227  L 482.688 44.176287  L 498.312 43.630086  L 516.168 43.2  L 516.168 43.2  "
           style="fill:none;stroke:#ff0000;stroke-dasharray:6.000000,6.000000;stroke-dashoffset:0.0;"
           id="path23" />
      </g>
      <g
         id="line2d_4">
        <path
           clip-path="url(#pf432fca413)"
           d="M 72 388.8  L 74.232 381.67463  L 76.464 375.914624  L 78.696 371.071802  L 80.928 366.887746  L 83.16 363.199824  L 85.392 359.898997  L 87.624 356.908597  L 89.856 354.172654  L 92.088 351.649042  L 96.552 347.115811  L 101.016 343.121432  L 105.48 339.542505  L 109.944 336.293444  L 114.408 333.312442  L 118.872 330.553392  L 125.568 326.755905  L 132.264 323.291104  L 138.96 320.094861  L 145.656 317.11943  L 154.584 313.433682  L 163.512 310.010663  L 172.44 306.801307  L 183.6 303.033439  L 194.76 299.484428  L 208.152 295.453988  L 223.776 290.994566  L 241.632 286.132157  L 263.952 280.285056  L 348.768 258.311026  L 366.624 253.314944  L 382.248 248.691183  L 395.64 244.473815  L 406.8 240.726387  L 415.728 237.537206  L 424.656 234.138806  L 433.584 230.483527  L 440.28 227.536007  L 446.976 224.373405  L 453.672 220.949802  L 460.368 217.20379  L 464.832 214.486763  L 469.296 211.555996  L 473.76 208.368006  L 478.224 204.864833  L 482.688 200.966818  L 487.152 196.560162  L 489.384 194.115948  L 491.616 191.474098  L 493.848 188.596962  L 496.08 185.435065  L 498.312 181.921547  L 500.544 177.96291  L 502.776 173.422666  L 505.008 168.090179  L 507.24 161.614715  L 509.472 153.344837  L 511.704 141.840864  L 513.936 122.666553  L 516.168 43.2  L 516.168 43.2  "
           style="fill:none;stroke:#00bfbf;stroke-dasharray:6.000000,6.000000;stroke-dashoffset:0.0;"
           id="path26" />
      </g>
      <g
         id="patch_3">
        <path
           d="M 72 43.2  L 518.4 43.2  "
           style="fill:none;stroke:#000000;stroke-linecap:square;stroke-linejoin:miter;"
           id="path29" />
      </g>
      <g
         id="patch_4">
        <path
           d="M 518.4 388.8  L 518.4 43.2  "
           style="fill:none;stroke:#000000;stroke-linecap:square;stroke-linejoin:miter;"
           id="path32" />
      </g>
      <g
         id="patch_5">
        <path
           d="M 72 388.8  L 518.4 388.8  "
           style="fill:none;stroke:#000000;stroke-linecap:square;stroke-linejoin:miter;"
           id="path35" />
      </g>
      <g
         id="patch_6">
        <path
           d="M 72 388.8  L 72 43.2  "
           style="fill:none;stroke:#000000;stroke-linecap:square;stroke-linejoin:miter;"
           id="path38" />
      </g>
      <g
         id="matplotlib.axis_1">
        <g
           id="xtick_1">
          <g
             id="line2d_5">
            <defs
               id="defs43">
              <path
                 d="M 0 0  L 0 -4  "
                 id="maa6de51a95"
                 style="stroke:#000000;stroke-width:0.5;" />
            </defs>
            <g
               id="g46">
              <use
                 style="stroke:#000000;stroke-width:0.5;"
                 x="72.0"
                 xlink:href="#maa6de51a95"
                 y="388.8"
                 id="use48" />
            </g>
          </g>
          <g
             id="line2d_6">
            <defs
               id="defs51">
              <path
                 d="M 0 0  L 0 4  "
                 id="m70f628c524"
                 style="stroke:#000000;stroke-width:0.5;" />
            </defs>
            <g
               id="g54">
              <use
                 style="stroke:#000000;stroke-width:0.5;"
                 x="72.0"
                 xlink:href="#m70f628c524"
                 y="43.2"
                 id="use56" />
            </g>
          </g>
          <g
             id="text_1">
            <!-- 0 -->
            <defs
               id="defs59">
              <path
                 d="M 31.78125 66.40625  Q 24.171875 66.40625 20.328125 58.90625  Q 16.5 51.421875 16.5 36.375  Q 16.5 21.390625 20.328125 13.890625  Q 24.171875 6.390625 31.78125 6.390625  Q 39.453125 6.390625 43.28125 13.890625  Q 47.125 21.390625 47.125 36.375  Q 47.125 51.421875 43.28125 58.90625  Q 39.453125 66.40625 31.78125 66.40625  M 31.78125 74.21875  Q 44.046875 74.21875 50.515625 64.515625  Q 56.984375 54.828125 56.984375 36.375  Q 56.984375 17.96875 50.515625 8.265625  Q 44.046875 -1.421875 31.78125 -1.421875  Q 19.53125 -1.421875 13.0625 8.265625  Q 6.59375 17.96875 6.59375 36.375  Q 6.59375 54.828125 13.0625 64.515625  Q 19.53125 74.21875 31.78125 74.21875  "
                 id="BitstreamVeraSans-Roman-30" />
            </defs>
            <g
               transform="translate(68.1825 401.918125)scale(0.12 -0.12)"
               id="g62">
              <use
                 xlink:href="#BitstreamVeraSans-Roman-30"
                 id="use64" />
            </g>
          </g>
        </g>
        <g
           id="xtick_2">
          <g
             id="line2d_7">
            <g
               id="g68">
              <use
                 style="stroke:#000000;stroke-width:0.5;"
                 x="183.6"
                 xlink:href="#maa6de51a95"
                 y="388.8"
                 id="use70" />
            </g>
          </g>
          <g
             id="line2d_8">
            <g
               id="g73">
              <use
                 style="stroke:#000000;stroke-width:0.5;"
                 x="183.6"
                 xlink:href="#m70f628c524"
                 y="43.2"
                 id="use75" />
            </g>
          </g>
          <g
             id="text_2">
            <!-- 50 -->
            <defs
               id="defs78">
              <path
                 d="M 10.796875 72.90625  L 49.515625 72.90625  L 49.515625 64.59375  L 19.828125 64.59375  L 19.828125 46.734375  Q 21.96875 47.46875 24.109375 47.828125  Q 26.265625 48.1875 28.421875 48.1875  Q 40.625 48.1875 47.75 41.5  Q 54.890625 34.8125 54.890625 23.390625  Q 54.890625 11.625 47.5625 5.09375  Q 40.234375 -1.421875 26.90625 -1.421875  Q 22.3125 -1.421875 17.546875 -0.640625  Q 12.796875 0.140625 7.71875 1.703125  L 7.71875 11.625  Q 12.109375 9.234375 16.796875 8.0625  Q 21.484375 6.890625 26.703125 6.890625  Q 35.15625 6.890625 40.078125 11.328125  Q 45.015625 15.765625 45.015625 23.390625  Q 45.015625 31 40.078125 35.4375  Q 35.15625 39.890625 26.703125 39.890625  Q 22.75 39.890625 18.8125 39.015625  Q 14.890625 38.140625 10.796875 36.28125  z "
                 id="BitstreamVeraSans-Roman-35" />
            </defs>
            <g
               transform="translate(175.965 401.918125)scale(0.12 -0.12)"
               id="g81">
              <use
                 xlink:href="#BitstreamVeraSans-Roman-35"
                 id="use83" />
              <use
                 x="63.623046875"
                 xlink:href="#BitstreamVeraSans-Roman-30"
                 id="use85" />
            </g>
          </g>
        </g>
        <g
           id="xtick_3">
          <g
             id="line2d_9">
            <g
               id="g89">
              <use
                 style="stroke:#000000;stroke-width:0.5;"
                 x="295.2"
                 xlink:href="#maa6de51a95"
                 y="388.8"
                 id="use91" />
            </g>
          </g>
          <g
             id="line2d_10">
            <g
               id="g94">
              <use
                 style="stroke:#000000;stroke-width:0.5;"
                 x="295.2"
                 xlink:href="#m70f628c524"
                 y="43.2"
                 id="use96" />
            </g>
          </g>
          <g
             id="text_3">
            <!-- 100 -->
            <defs
               id="defs99">
              <path
                 d="M 12.40625 8.296875  L 28.515625 8.296875  L 28.515625 63.921875  L 10.984375 60.40625  L 10.984375 69.390625  L 28.421875 72.90625  L 38.28125 72.90625  L 38.28125 8.296875  L 54.390625 8.296875  L 54.390625 0  L 12.40625 0  z "
                 id="BitstreamVeraSans-Roman-31" />
            </defs>
            <g
               transform="translate(283.7475 401.918125)scale(0.12 -0.12)"
               id="g102">
              <use
                 xlink:href="#BitstreamVeraSans-Roman-31"
                 id="use104" />
              <use
                 x="63.623046875"
                 xlink:href="#BitstreamVeraSans-Roman-30"
                 id="use106" />
              <use
                 x="127.24609375"
                 xlink:href="#BitstreamVeraSans-Roman-30"
                 id="use108" />
            </g>
          </g>
        </g>
        <g
           id="xtick_4">
          <g
             id="line2d_11">
            <g
               id="g112">
              <use
                 style="stroke:#000000;stroke-width:0.5;"
                 x="406.8"
                 xlink:href="#maa6de51a95"
                 y="388.8"
                 id="use114" />
            </g>
          </g>
          <g
             id="line2d_12">
            <g
               id="g117">
              <use
                 style="stroke:#000000;stroke-width:0.5;"
                 x="406.8"
                 xlink:href="#m70f628c524"
                 y="43.2"
                 id="use119" />
            </g>
          </g>
          <g
             id="text_4">
            <!-- 150 -->
            <g
               transform="translate(395.3475 401.918125)scale(0.12 -0.12)"
               id="g122">
              <use
                 xlink:href="#BitstreamVeraSans-Roman-31"
                 id="use124" />
              <use
                 x="63.623046875"
                 xlink:href="#BitstreamVeraSans-Roman-35"
                 id="use126" />
              <use
                 x="127.24609375"
                 xlink:href="#BitstreamVeraSans-Roman-30"
                 id="use128" />
            </g>
          </g>
        </g>
        <g
           id="xtick_5">
          <g
             id="line2d_13">
            <g
               id="g132">
              <use
                 style="stroke:#000000;stroke-width:0.5;"
                 x="518.4"
                 xlink:href="#maa6de51a95"
                 y="388.8"
                 id="use134" />
            </g>
          </g>
          <g
             id="line2d_14">
            <g
               id="g137">
              <use
                 style="stroke:#000000;stroke-width:0.5;"
                 x="518.4"
                 xlink:href="#m70f628c524"
                 y="43.2"
                 id="use139" />
            </g>
          </g>
          <g
             id="text_5">
            <!-- 200 -->
            <defs
               id="defs142">
              <path
                 d="M 19.1875 8.296875  L 53.609375 8.296875  L 53.609375 0  L 7.328125 0  L 7.328125 8.296875  Q 12.9375 14.109375 22.625 23.890625  Q 32.328125 33.6875 34.8125 36.53125  Q 39.546875 41.84375 41.421875 45.53125  Q 43.3125 49.21875 43.3125 52.78125  Q 43.3125 58.59375 39.234375 62.25  Q 35.15625 65.921875 28.609375 65.921875  Q 23.96875 65.921875 18.8125 64.3125  Q 13.671875 62.703125 7.8125 59.421875  L 7.8125 69.390625  Q 13.765625 71.78125 18.9375 73  Q 24.125 74.21875 28.421875 74.21875  Q 39.75 74.21875 46.484375 68.546875  Q 53.21875 62.890625 53.21875 53.421875  Q 53.21875 48.921875 51.53125 44.890625  Q 49.859375 40.875 45.40625 35.40625  Q 44.1875 33.984375 37.640625 27.21875  Q 31.109375 20.453125 19.1875 8.296875  "
                 id="BitstreamVeraSans-Roman-32" />
            </defs>
            <g
               transform="translate(506.9475 401.918125)scale(0.12 -0.12)"
               id="g145">
              <use
                 xlink:href="#BitstreamVeraSans-Roman-32"
                 id="use147" />
              <use
                 x="63.623046875"
                 xlink:href="#BitstreamVeraSans-Roman-30"
                 id="use149" />
              <use
                 x="127.24609375"
                 xlink:href="#BitstreamVeraSans-Roman-30"
                 id="use151" />
            </g>
          </g>
        </g>
      </g>
      <g
         id="matplotlib.axis_2">
        <g
           id="ytick_1">
          <g
             id="line2d_15">
            <defs
               id="defs156">
              <path
                 d="M 0 0  L 4 0  "
                 id="m93a4c7f523"
                 style="stroke:#000000;stroke-width:0.5;" />
            </defs>
            <g
               id="g159">
              <use
                 style="stroke:#000000;stroke-width:0.5;"
                 x="72.0"
                 xlink:href="#m93a4c7f523"
                 y="388.8"
                 id="use161" />
            </g>
          </g>
          <g
             id="line2d_16">
            <defs
               id="defs164">
              <path
                 d="M 0 0  L -4 0  "
                 id="m434b72579c"
                 style="stroke:#000000;stroke-width:0.5;" />
            </defs>
            <g
               id="g167">
              <use
                 style="stroke:#000000;stroke-width:0.5;"
                 x="518.4"
                 xlink:href="#m434b72579c"
                 y="388.8"
                 id="use169" />
            </g>
          </g>
          <g
             id="text_6">
            <!-- 0.0 -->
            <defs
               id="defs172">
              <path
                 d="M 10.6875 12.40625  L 21 12.40625  L 21 0  L 10.6875 0  z "
                 id="BitstreamVeraSans-Roman-2e" />
            </defs>
            <g
               transform="translate(48.91625 392.11125)scale(0.12 -0.12)"
               id="g175">
              <use
                 xlink:href="#BitstreamVeraSans-Roman-30"
                 id="use177" />
              <use
                 x="63.623046875"
                 xlink:href="#BitstreamVeraSans-Roman-2e"
                 id="use179" />
              <use
                 x="95.41015625"
                 xlink:href="#BitstreamVeraSans-Roman-30"
                 id="use181" />
            </g>
          </g>
        </g>
        <g
           id="ytick_2">
          <g
             id="line2d_17">
            <g
               id="g185">
              <use
                 style="stroke:#000000;stroke-width:0.5;"
                 x="72.0"
                 xlink:href="#m93a4c7f523"
                 y="319.68"
                 id="use187" />
            </g>
          </g>
          <g
             id="line2d_18">
            <g
               id="g190">
              <use
                 style="stroke:#000000;stroke-width:0.5;"
                 x="518.4"
                 xlink:href="#m434b72579c"
                 y="319.68"
                 id="use192" />
            </g>
          </g>
          <g
             id="text_7">
            <!-- 0.2 -->
            <g
               transform="translate(48.91625 322.99125)scale(0.12 -0.12)"
               id="g195">
              <use
                 xlink:href="#BitstreamVeraSans-Roman-30"
                 id="use197" />
              <use
                 x="63.623046875"
                 xlink:href="#BitstreamVeraSans-Roman-2e"
                 id="use199" />
              <use
                 x="95.41015625"
                 xlink:href="#BitstreamVeraSans-Roman-32"
                 id="use201" />
            </g>
          </g>
        </g>
        <g
           id="ytick_3">
          <g
             id="line2d_19">
            <g
               id="g205">
              <use
                 style="stroke:#000000;stroke-width:0.5;"
                 x="72.0"
                 xlink:href="#m93a4c7f523"
                 y="250.56"
                 id="use207" />
            </g>
          </g>
          <g
             id="line2d_20">
            <g
               id="g210">
              <use
                 style="stroke:#000000;stroke-width:0.5;"
                 x="518.4"
                 xlink:href="#m434b72579c"
                 y="250.56"
                 id="use212" />
            </g>
          </g>
          <g
             id="text_8">
            <!-- 0.4 -->
            <defs
               id="defs215">
              <path
                 d="M 37.796875 64.3125  L 12.890625 25.390625  L 37.796875 25.390625  z M 35.203125 72.90625  L 47.609375 72.90625  L 47.609375 25.390625  L 58.015625 25.390625  L 58.015625 17.1875  L 47.609375 17.1875  L 47.609375 0  L 37.796875 0  L 37.796875 17.1875  L 4.890625 17.1875  L 4.890625 26.703125  z "
                 id="BitstreamVeraSans-Roman-34" />
            </defs>
            <g
               transform="translate(48.91625 253.87125)scale(0.12 -0.12)"
               id="g218">
              <use
                 xlink:href="#BitstreamVeraSans-Roman-30"
                 id="use220" />
              <use
                 x="63.623046875"
                 xlink:href="#BitstreamVeraSans-Roman-2e"
                 id="use222" />
              <use
                 x="95.41015625"
                 xlink:href="#BitstreamVeraSans-Roman-34"
                 id="use224" />
            </g>
          </g>
        </g>
        <g
           id="ytick_4">
          <g
             id="line2d_21">
            <g
               id="g228">
              <use
                 style="stroke:#000000;stroke-width:0.5;"
                 x="72.0"
                 xlink:href="#m93a4c7f523"
                 y="181.44"
                 id="use230" />
            </g>
          </g>
          <g
             id="line2d_22">
            <g
               id="g233">
              <use
                 style="stroke:#000000;stroke-width:0.5;"
                 x="518.4"
                 xlink:href="#m434b72579c"
                 y="181.44"
                 id="use235" />
            </g>
          </g>
          <g
             id="text_9">
            <!-- 0.6 -->
            <defs
               id="defs238">
              <path
                 d="M 33.015625 40.375  Q 26.375 40.375 22.484375 35.828125  Q 18.609375 31.296875 18.609375 23.390625  Q 18.609375 15.53125 22.484375 10.953125  Q 26.375 6.390625 33.015625 6.390625  Q 39.65625 6.390625 43.53125 10.953125  Q 47.40625 15.53125 47.40625 23.390625  Q 47.40625 31.296875 43.53125 35.828125  Q 39.65625 40.375 33.015625 40.375  M 52.59375 71.296875  L 52.59375 62.3125  Q 48.875 64.0625 45.09375 64.984375  Q 41.3125 65.921875 37.59375 65.921875  Q 27.828125 65.921875 22.671875 59.328125  Q 17.53125 52.734375 16.796875 39.40625  Q 19.671875 43.65625 24.015625 45.921875  Q 28.375 48.1875 33.59375 48.1875  Q 44.578125 48.1875 50.953125 41.515625  Q 57.328125 34.859375 57.328125 23.390625  Q 57.328125 12.15625 50.6875 5.359375  Q 44.046875 -1.421875 33.015625 -1.421875  Q 20.359375 -1.421875 13.671875 8.265625  Q 6.984375 17.96875 6.984375 36.375  Q 6.984375 53.65625 15.1875 63.9375  Q 23.390625 74.21875 37.203125 74.21875  Q 40.921875 74.21875 44.703125 73.484375  Q 48.484375 72.75 52.59375 71.296875  "
                 id="BitstreamVeraSans-Roman-36" />
            </defs>
            <g
               transform="translate(48.91625 184.75125)scale(0.12 -0.12)"
               id="g241">
              <use
                 xlink:href="#BitstreamVeraSans-Roman-30"
                 id="use243" />
              <use
                 x="63.623046875"
                 xlink:href="#BitstreamVeraSans-Roman-2e"
                 id="use245" />
              <use
                 x="95.41015625"
                 xlink:href="#BitstreamVeraSans-Roman-36"
                 id="use247" />
            </g>
          </g>
        </g>
        <g
           id="ytick_5">
          <g
             id="line2d_23">
            <g
               id="g251">
              <use
                 style="stroke:#000000;stroke-width:0.5;"
                 x="72.0"
                 xlink:href="#m93a4c7f523"
                 y="112.32"
                 id="use253" />
            </g>
          </g>
          <g
             id="line2d_24">
            <g
               id="g256">
              <use
                 style="stroke:#000000;stroke-width:0.5;"
                 x="518.4"
                 xlink:href="#m434b72579c"
                 y="112.32"
                 id="use258" />
            </g>
          </g>
          <g
             id="text_10">
            <!-- 0.8 -->
            <defs
               id="defs261">
              <path
                 d="M 31.78125 34.625  Q 24.75 34.625 20.71875 30.859375  Q 16.703125 27.09375 16.703125 20.515625  Q 16.703125 13.921875 20.71875 10.15625  Q 24.75 6.390625 31.78125 6.390625  Q 38.8125 6.390625 42.859375 10.171875  Q 46.921875 13.96875 46.921875 20.515625  Q 46.921875 27.09375 42.890625 30.859375  Q 38.875 34.625 31.78125 34.625  M 21.921875 38.8125  Q 15.578125 40.375 12.03125 44.71875  Q 8.5 49.078125 8.5 55.328125  Q 8.5 64.0625 14.71875 69.140625  Q 20.953125 74.21875 31.78125 74.21875  Q 42.671875 74.21875 48.875 69.140625  Q 55.078125 64.0625 55.078125 55.328125  Q 55.078125 49.078125 51.53125 44.71875  Q 48 40.375 41.703125 38.8125  Q 48.828125 37.15625 52.796875 32.3125  Q 56.78125 27.484375 56.78125 20.515625  Q 56.78125 9.90625 50.3125 4.234375  Q 43.84375 -1.421875 31.78125 -1.421875  Q 19.734375 -1.421875 13.25 4.234375  Q 6.78125 9.90625 6.78125 20.515625  Q 6.78125 27.484375 10.78125 32.3125  Q 14.796875 37.15625 21.921875 38.8125  M 18.3125 54.390625  Q 18.3125 48.734375 21.84375 45.5625  Q 25.390625 42.390625 31.78125 42.390625  Q 38.140625 42.390625 41.71875 45.5625  Q 45.3125 48.734375 45.3125 54.390625  Q 45.3125 60.0625 41.71875 63.234375  Q 38.140625 66.40625 31.78125 66.40625  Q 25.390625 66.40625 21.84375 63.234375  Q 18.3125 60.0625 18.3125 54.390625  "
                 id="BitstreamVeraSans-Roman-38" />
            </defs>
            <g
               transform="translate(48.91625 115.63125)scale(0.12 -0.12)"
               id="g264">
              <use
                 xlink:href="#BitstreamVeraSans-Roman-30"
                 id="use266" />
              <use
                 x="63.623046875"
                 xlink:href="#BitstreamVeraSans-Roman-2e"
                 id="use268" />
              <use
                 x="95.41015625"
                 xlink:href="#BitstreamVeraSans-Roman-38"
                 id="use270" />
            </g>
          </g>
        </g>
        <g
           id="ytick_6">
          <g
             id="line2d_25">
            <g
               id="g274">
              <use
                 style="stroke:#000000;stroke-width:0.5;"
                 x="72.0"
                 xlink:href="#m93a4c7f523"
                 y="43.2"
                 id="use276" />
            </g>
          </g>
          <g
             id="line2d_26">
            <g
               id="g279">
              <use
                 style="stroke:#000000;stroke-width:0.5;"
                 x="518.4"
                 xlink:href="#m434b72579c"
                 y="43.2"
                 id="use281" />
            </g>
          </g>
          <g
             id="text_11">
            <!-- 1.0 -->
            <g
               transform="translate(48.91625 46.51125)scale(0.12 -0.12)"
               id="g284">
              <use
                 xlink:href="#BitstreamVeraSans-Roman-31"
                 id="use286" />
              <use
                 x="63.623046875"
                 xlink:href="#BitstreamVeraSans-Roman-2e"
                 id="use288" />
              <use
                 x="95.41015625"
                 xlink:href="#BitstreamVeraSans-Roman-30"
                 id="use290" />
            </g>
          </g>
        </g>
      </g>
      <g
         id="text_12"
         transform="matrix(2,0,0,2,-294.31075,-41.743662)"
         style="stroke-linecap:butt;stroke-linejoin:round;stroke-miterlimit:100000">
        <!-- Constructed Warping Path -->
        <defs
           id="defs293">
          <path
             id="BitstreamVeraSans-Roman-20"
             d=""
             inkscape:connector-curvature="0"
             style="stroke-linecap:butt;stroke-linejoin:round;stroke-miterlimit:100000" />
          <path
             d="m 54.890625,33.015625 0,-33.015625 -8.984375,0 0,32.71875 q 0,7.765625 -3.03125,11.609375 -3.03125,3.859375 -9.078125,3.859375 -7.28125,0 -11.484375,-4.640625 -4.203125,-4.625 -4.203125,-12.640625 l 0,-30.90625 -9.03125,0 0,54.6875 9.03125,0 0,-8.5 q 3.234375,4.9375 7.59375,7.375 4.375,2.4375 10.09375,2.4375 9.421875,0 14.25,-5.828125 4.84375,-5.828125 4.84375,-17.15625"
             id="BitstreamVeraSans-Roman-6e"
             inkscape:connector-curvature="0"
             style="stroke-linecap:butt;stroke-linejoin:round;stroke-miterlimit:100000" />
          <path
             d="m 34.28125,27.484375 q -10.890625,0 -15.09375,-2.484375 -4.203125,-2.484375 -4.203125,-8.5 0,-4.78125 3.15625,-7.59375 3.15625,-2.796875 8.5625,-2.796875 7.484375,0 12,5.296875 4.515625,5.296875 4.515625,14.078125 l 0,2 z m 17.921875,3.71875 0,-31.203125 -8.984375,0 0,8.296875 q -3.078125,-4.96875 -7.671875,-7.34375 -4.59375,-2.375 -11.234375,-2.375 -8.390625,0 -13.359375,4.71875 Q 6,8.015625 6,15.921875 q 0,9.21875 6.171875,13.90625 6.1875,4.6875 18.4375,4.6875 l 12.609375,0 0,0.890625 q 0,6.203125 -4.078125,9.59375 -4.078125,3.390625 -11.453125,3.390625 -4.6875,0 -9.140625,-1.125 -4.4375,-1.125 -8.53125,-3.375 l 0,8.3125 q 4.921875,1.90625 9.5625,2.84375 Q 24.21875,56 28.609375,56 q 11.875,0 17.734375,-6.15625 5.859375,-6.140625 5.859375,-18.640625"
             id="BitstreamVeraSans-Roman-61"
             inkscape:connector-curvature="0"
             style="stroke-linecap:butt;stroke-linejoin:round;stroke-miterlimit:100000" />
          <path
             d="m 9.421875,54.6875 8.984375,0 0,-54.6875 -8.984375,0 z m 0,21.296875 8.984375,0 0,-11.390625 -8.984375,0 z"
             id="BitstreamVeraSans-Roman-69"
             inkscape:connector-curvature="0"
             style="stroke-linecap:butt;stroke-linejoin:round;stroke-miterlimit:100000" />
          <path
             d="m 30.609375,48.390625 q -7.21875,0 -11.421875,-5.640625 -4.203125,-5.640625 -4.203125,-15.453125 0,-9.8125 4.171875,-15.453125 4.1875,-5.640625 11.453125,-5.640625 7.1875,0 11.375,5.65625 4.203125,5.671875 4.203125,15.4375 0,9.71875 -4.203125,15.40625 -4.1875,5.6875 -11.375,5.6875 m 0,7.609375 q 11.71875,0 18.40625,-7.625 6.703125,-7.609375 6.703125,-21.078125 0,-13.421875 -6.703125,-21.078125 -6.6875,-7.640625 -18.40625,-7.640625 -11.765625,0 -18.4375,7.640625 -6.65625,7.65625 -6.65625,21.078125 0,13.46875 6.65625,21.078125 Q 18.84375,56 30.609375,56"
             id="BitstreamVeraSans-Roman-6f"
             inkscape:connector-curvature="0"
             style="stroke-linecap:butt;stroke-linejoin:round;stroke-miterlimit:100000" />
          <path
             d="m 19.671875,64.796875 0,-27.390625 12.40625,0 q 6.890625,0 10.640625,3.5625 3.765625,3.5625 3.765625,10.15625 0,6.546875 -3.765625,10.109375 -3.75,3.5625 -10.640625,3.5625 z M 9.8125,72.90625 l 22.265625,0 q 12.265625,0 18.53125,-5.546875 6.28125,-5.546875 6.28125,-16.234375 0,-10.796875 -6.28125,-16.3125 -6.265625,-5.515625 -18.53125,-5.515625 l -12.40625,0 L 19.671875,0 9.8125,0 Z"
             id="BitstreamVeraSans-Roman-50"
             inkscape:connector-curvature="0"
             style="stroke-linecap:butt;stroke-linejoin:round;stroke-miterlimit:100000" />
          <path
             d="m 45.40625,27.984375 q 0,9.765625 -4.03125,15.125 -4.015625,5.375 -11.296875,5.375 -7.21875,0 -11.25,-5.375 -4.03125,-5.359375 -4.03125,-15.125 0,-9.71875 4.03125,-15.09375 4.03125,-5.375 11.25,-5.375 7.28125,0 11.296875,5.375 4.03125,5.375 4.03125,15.09375 M 54.390625,6.78125 q 0,-13.953125 -6.203125,-20.765625 -6.1875,-6.8125 -18.984375,-6.8125 -4.734375,0 -8.9375,0.703125 -4.203125,0.703125 -8.15625,2.171875 l 0,8.734375 q 3.953125,-2.140625 7.8125,-3.15625 3.859375,-1.03125 7.859375,-1.03125 8.84375,0 13.234375,4.609375 4.390625,4.609375 4.390625,13.9375 l 0,4.453125 Q 42.625,4.78125 38.28125,2.390625 33.9375,0 27.875,0 17.828125,0 11.671875,7.65625 q -6.15625,7.671875 -6.15625,20.328125 0,12.6875 6.15625,20.34375 Q 17.828125,56 27.875,56 q 6.0625,0 10.40625,-2.390625 4.34375,-2.390625 7.125,-7.21875 l 0,8.296875 8.984375,0 z"
             id="BitstreamVeraSans-Roman-67"
             inkscape:connector-curvature="0"
             style="stroke-linecap:butt;stroke-linejoin:round;stroke-miterlimit:100000" />
          <path
             d="m 64.40625,67.28125 0,-10.390625 q -4.984375,4.640625 -10.625,6.921875 -5.640625,2.296875 -11.984375,2.296875 -12.5,0 -19.140625,-7.640625 -6.640625,-7.640625 -6.640625,-22.09375 0,-14.40625 6.640625,-22.046875 Q 29.296875,6.6875 41.796875,6.6875 q 6.34375,0 11.984375,2.296875 5.640625,2.296875 10.625,6.9375 l 0,-10.3125 Q 59.234375,2.09375 53.4375,0.328125 q -5.78125,-1.75 -12.21875,-1.75 -16.5625,0 -26.09375,10.125 Q 5.609375,18.84375 5.609375,36.375 q 0,17.578125 9.515625,27.703125 9.53125,10.140625 26.09375,10.140625 6.53125,0 12.3125,-1.734375 5.796875,-1.734375 10.875,-5.203125"
             id="BitstreamVeraSans-Roman-43"
             inkscape:connector-curvature="0"
             style="stroke-linecap:butt;stroke-linejoin:round;stroke-miterlimit:100000" />
          <path
             d="m 18.109375,8.203125 0,-29 -9.03125,0 0,75.484375 9.03125,0 0,-8.296875 q 2.84375,4.875 7.15625,7.234375 Q 29.59375,56 35.59375,56 q 9.96875,0 16.1875,-7.90625 6.234375,-7.90625 6.234375,-20.796875 0,-12.890625 -6.234375,-20.8125 -6.21875,-7.90625 -16.1875,-7.90625 -6,0 -10.328125,2.375 -4.3125,2.375 -7.15625,7.25 M 48.6875,27.296875 q 0,9.90625 -4.078125,15.546875 -4.078125,5.640625 -11.203125,5.640625 -7.140625,0 -11.21875,-5.640625 -4.078125,-5.640625 -4.078125,-15.546875 0,-9.90625 4.078125,-15.546875 4.078125,-5.640625 11.21875,-5.640625 7.125,0 11.203125,5.640625 4.078125,5.640625 4.078125,15.546875"
             id="BitstreamVeraSans-Roman-70"
             inkscape:connector-curvature="0"
             style="stroke-linecap:butt;stroke-linejoin:round;stroke-miterlimit:100000" />
          <path
             d="m 3.328125,72.90625 9.953125,0 15.328125,-61.625 15.28125,61.625 11.09375,0 15.328125,-61.625 15.28125,61.625 10.015625,0 L 77.296875,0 64.890625,0 49.515625,63.28125 33.984375,0 21.578125,0 Z"
             id="BitstreamVeraSans-Roman-57"
             inkscape:connector-curvature="0"
             style="stroke-linecap:butt;stroke-linejoin:round;stroke-miterlimit:100000" />
          <path
             d="m 56.203125,29.59375 0,-4.390625 -41.3125,0 q 0.59375,-9.28125 5.59375,-14.140625 5,-4.859375 13.9375,-4.859375 5.171875,0 10.03125,1.265625 4.859375,1.265625 9.65625,3.8125 l 0,-8.5 q -4.84375,-2.046875 -9.921875,-3.125 -5.078125,-1.078125 -10.296875,-1.078125 -13.09375,0 -20.734375,7.609375 -7.640625,7.625 -7.640625,20.625 0,13.421875 7.25,21.296875 Q 20.015625,56 32.328125,56 q 11.03125,0 17.453125,-7.109375 6.421875,-7.09375 6.421875,-19.296875 m -8.984375,2.640625 q -0.09375,7.359375 -4.125,11.75 -4.03125,4.40625 -10.671875,4.40625 -7.515625,0 -12.03125,-4.25 -4.515625,-4.25 -5.203125,-11.96875 z"
             id="BitstreamVeraSans-Roman-65"
             inkscape:connector-curvature="0"
             style="stroke-linecap:butt;stroke-linejoin:round;stroke-miterlimit:100000" />
          <path
             d="m 45.40625,46.390625 0,29.59375 8.984375,0 0,-75.984375 -8.984375,0 0,8.203125 q -2.828125,-4.875 -7.15625,-7.25 -4.3125,-2.375 -10.375,-2.375 -9.90625,0 -16.140625,7.90625 -6.21875,7.921875 -6.21875,20.8125 0,12.890625 6.21875,20.796875 Q 17.96875,56 27.875,56 q 6.0625,0 10.375,-2.375 4.328125,-2.359375 7.15625,-7.234375 M 14.796875,27.296875 q 0,-9.90625 4.078125,-15.546875 4.078125,-5.640625 11.203125,-5.640625 7.125,0 11.21875,5.640625 4.109375,5.640625 4.109375,15.546875 0,9.90625 -4.109375,15.546875 -4.09375,5.640625 -11.21875,5.640625 -7.125,0 -11.203125,-5.640625 -4.078125,-5.640625 -4.078125,-15.546875"
             id="BitstreamVeraSans-Roman-64"
             inkscape:connector-curvature="0"
             style="stroke-linecap:butt;stroke-linejoin:round;stroke-miterlimit:100000" />
          <path
             d="m 18.3125,70.21875 0,-15.53125 18.5,0 0,-6.984375 -18.5,0 0,-29.6875 q 0,-6.6875 1.828125,-8.59375 1.828125,-1.90625 7.453125,-1.90625 l 9.21875,0 L 36.8125,0 27.59375,0 Q 17.1875,0 13.234375,3.875 9.28125,7.765625 9.28125,18.015625 l 0,29.6875 -6.59375,0 0,6.984375 6.59375,0 0,15.53125 z"
             id="BitstreamVeraSans-Roman-74"
             inkscape:connector-curvature="0"
             style="stroke-linecap:butt;stroke-linejoin:round;stroke-miterlimit:100000" />
          <path
             d="m 8.5,21.578125 0,33.109375 8.984375,0 0,-32.765625 q 0,-7.765625 3.015625,-11.65625 3.03125,-3.875 9.09375,-3.875 7.265625,0 11.484375,4.640625 4.234375,4.640625 4.234375,12.65625 l 0,31 8.984375,0 0,-54.6875 -8.984375,0 0,8.40625 Q 42.046875,3.421875 37.71875,1 33.40625,-1.421875 27.6875,-1.421875 18.265625,-1.421875 13.375,4.4375 8.5,10.296875 8.5,21.578125"
             id="BitstreamVeraSans-Roman-75"
             inkscape:connector-curvature="0"
             style="stroke-linecap:butt;stroke-linejoin:round;stroke-miterlimit:100000" />
          <path
             d="m 41.109375,46.296875 q -1.515625,0.875 -3.296875,1.28125 Q 36.03125,48 33.890625,48 26.265625,48 22.1875,43.046875 18.109375,38.09375 18.109375,28.8125 l 0,-28.8125 -9.03125,0 0,54.6875 9.03125,0 0,-8.5 q 2.84375,4.984375 7.375,7.390625 Q 30.03125,56 36.53125,56 q 0.921875,0 2.046875,-0.125 1.125,-0.109375 2.484375,-0.359375 z"
             id="BitstreamVeraSans-Roman-72"
             inkscape:connector-curvature="0"
             style="stroke-linecap:butt;stroke-linejoin:round;stroke-miterlimit:100000" />
          <path
             d="m 44.28125,53.078125 0,-8.5 Q 40.484375,46.53125 36.375,47.5 q -4.09375,0.984375 -8.5,0.984375 -6.6875,0 -10.03125,-2.046875 Q 14.5,44.390625 14.5,40.28125 q 0,-3.125 2.390625,-4.90625 2.390625,-1.78125 9.625,-3.390625 l 3.078125,-0.6875 Q 39.15625,29.25 43.1875,25.515625 47.21875,21.78125 47.21875,15.09375 q 0,-7.625 -6.03125,-12.078125 -6.03125,-4.4375 -16.578125,-4.4375 -4.390625,0 -9.15625,0.859375 Q 10.6875,0.296875 5.421875,2 l 0,9.28125 q 4.984375,-2.59375 9.8125,-3.890625 4.828125,-1.28125 9.578125,-1.28125 6.34375,0 9.75,2.171875 3.421875,2.171875 3.421875,6.125 0,3.65625 -2.46875,5.609375 -2.453125,1.953125 -10.8125,3.765625 l -3.125,0.734375 q -8.34375,1.75 -12.0625,5.390625 -3.703125,3.640625 -3.703125,9.984375 0,7.71875 5.46875,11.90625 Q 16.75,56 26.8125,56 q 4.96875,0 9.359375,-0.734375 4.40625,-0.71875 8.109375,-2.1875"
             id="BitstreamVeraSans-Roman-73"
             inkscape:connector-curvature="0"
             style="stroke-linecap:butt;stroke-linejoin:round;stroke-miterlimit:100000" />
          <path
             d="m 48.78125,52.59375 0,-8.40625 q -3.8125,2.109375 -7.640625,3.15625 -3.828125,1.046875 -7.734375,1.046875 -8.75,0 -13.59375,-5.546875 -4.828125,-5.53125 -4.828125,-15.546875 0,-10.015625 4.828125,-15.5625 4.84375,-5.53125 13.59375,-5.53125 3.90625,0 7.734375,1.046875 3.828125,1.046875 7.640625,3.15625 l 0,-8.3125 q -3.765625,-1.75 -7.796875,-2.625 -4.015625,-0.890625 -8.5625,-0.890625 -12.359375,0 -19.640625,7.765625 -7.265625,7.765625 -7.265625,20.953125 0,13.375 7.34375,21.03125 Q 20.21875,56 33.015625,56 q 4.140625,0 8.09375,-0.859375 3.953125,-0.84375 7.671875,-2.546875"
             id="BitstreamVeraSans-Roman-63"
             inkscape:connector-curvature="0"
             style="stroke-linecap:butt;stroke-linejoin:round;stroke-miterlimit:100000" />
          <path
             d="m 54.890625,33.015625 0,-33.015625 -8.984375,0 0,32.71875 q 0,7.765625 -3.03125,11.609375 -3.03125,3.859375 -9.078125,3.859375 -7.28125,0 -11.484375,-4.640625 -4.203125,-4.625 -4.203125,-12.640625 l 0,-30.90625 -9.03125,0 0,75.984375 9.03125,0 0,-29.796875 q 3.234375,4.9375 7.59375,7.375 4.375,2.4375 10.09375,2.4375 9.421875,0 14.25,-5.828125 4.84375,-5.828125 4.84375,-17.15625"
             id="BitstreamVeraSans-Roman-68"
             inkscape:connector-curvature="0"
             style="stroke-linecap:butt;stroke-linejoin:round;stroke-miterlimit:100000" />
        </defs>
        <g
           transform="matrix(0.144,0,0,-0.144,200.42437,38.2)"
           id="g313"
           style="stroke-linecap:butt;stroke-linejoin:round;stroke-miterlimit:100000">
          <use
             xlink:href="#BitstreamVeraSans-Roman-43"
             id="use315"
             style="stroke-linecap:butt;stroke-linejoin:round;stroke-miterlimit:100000"
             x="0"
             y="0"
             width="100%"
             height="100%" />
          <use
             x="69.824219"
             xlink:href="#BitstreamVeraSans-Roman-6f"
             id="use317"
             style="stroke-linecap:butt;stroke-linejoin:round;stroke-miterlimit:100000"
             y="0"
             width="100%"
             height="100%" />
          <use
             x="131.00586"
             xlink:href="#BitstreamVeraSans-Roman-6e"
             id="use319"
             style="stroke-linecap:butt;stroke-linejoin:round;stroke-miterlimit:100000"
             y="0"
             width="100%"
             height="100%" />
          <use
             x="194.38477"
             xlink:href="#BitstreamVeraSans-Roman-73"
             id="use321"
             style="stroke-linecap:butt;stroke-linejoin:round;stroke-miterlimit:100000"
             y="0"
             width="100%"
             height="100%" />
          <use
             x="246.48438"
             xlink:href="#BitstreamVeraSans-Roman-74"
             id="use323"
             style="stroke-linecap:butt;stroke-linejoin:round;stroke-miterlimit:100000"
             y="0"
             width="100%"
             height="100%" />
          <use
             x="285.69336"
             xlink:href="#BitstreamVeraSans-Roman-72"
             id="use325"
             style="stroke-linecap:butt;stroke-linejoin:round;stroke-miterlimit:100000"
             y="0"
             width="100%"
             height="100%" />
          <use
             x="326.80664"
             xlink:href="#BitstreamVeraSans-Roman-75"
             id="use327"
             style="stroke-linecap:butt;stroke-linejoin:round;stroke-miterlimit:100000"
             y="0"
             width="100%"
             height="100%" />
          <use
             x="390.18555"
             xlink:href="#BitstreamVeraSans-Roman-63"
             id="use329"
             style="stroke-linecap:butt;stroke-linejoin:round;stroke-miterlimit:100000"
             y="0"
             width="100%"
             height="100%" />
          <use
             x="445.16602"
             xlink:href="#BitstreamVeraSans-Roman-74"
             id="use331"
             style="stroke-linecap:butt;stroke-linejoin:round;stroke-miterlimit:100000"
             y="0"
             width="100%"
             height="100%" />
          <use
             x="484.375"
             xlink:href="#BitstreamVeraSans-Roman-65"
             id="use333"
             style="stroke-linecap:butt;stroke-linejoin:round;stroke-miterlimit:100000"
             y="0"
             width="100%"
             height="100%" />
          <use
             x="545.89844"
             xlink:href="#BitstreamVeraSans-Roman-64"
             id="use335"
             style="stroke-linecap:butt;stroke-linejoin:round;stroke-miterlimit:100000"
             y="0"
             width="100%"
             height="100%" />
          <use
             x="609.375"
             xlink:href="#BitstreamVeraSans-Roman-20"
             id="use337"
             style="stroke-linecap:butt;stroke-linejoin:round;stroke-miterlimit:100000"
             y="0"
             width="100%"
             height="100%" />
          <use
             x="641.16211"
             xlink:href="#BitstreamVeraSans-Roman-57"
             id="use339"
             style="stroke-linecap:butt;stroke-linejoin:round;stroke-miterlimit:100000"
             y="0"
             width="100%"
             height="100%" />
          <use
             x="739.94531"
             xlink:href="#BitstreamVeraSans-Roman-61"
             id="use341"
             style="stroke-linecap:butt;stroke-linejoin:round;stroke-miterlimit:100000"
             y="0"
             width="100%"
             height="100%" />
          <use
             x="801.22461"
             xlink:href="#BitstreamVeraSans-Roman-72"
             id="use343"
             style="stroke-linecap:butt;stroke-linejoin:round;stroke-miterlimit:100000"
             y="0"
             width="100%"
             height="100%" />
          <use
             x="842.33789"
             xlink:href="#BitstreamVeraSans-Roman-70"
             id="use345"
             style="stroke-linecap:butt;stroke-linejoin:round;stroke-miterlimit:100000"
             y="0"
             width="100%"
             height="100%" />
          <use
             x="905.81445"
             xlink:href="#BitstreamVeraSans-Roman-69"
             id="use347"
             style="stroke-linecap:butt;stroke-linejoin:round;stroke-miterlimit:100000"
             y="0"
             width="100%"
             height="100%" />
          <use
             x="933.59766"
             xlink:href="#BitstreamVeraSans-Roman-6e"
             id="use349"
             style="stroke-linecap:butt;stroke-linejoin:round;stroke-miterlimit:100000"
             y="0"
             width="100%"
             height="100%" />
          <use
             x="996.97656"
             xlink:href="#BitstreamVeraSans-Roman-67"
             id="use351"
             style="stroke-linecap:butt;stroke-linejoin:round;stroke-miterlimit:100000"
             y="0"
             width="100%"
             height="100%" />
          <use
             x="1060.4531"
             xlink:href="#BitstreamVeraSans-Roman-20"
             id="use353"
             style="stroke-linecap:butt;stroke-linejoin:round;stroke-miterlimit:100000"
             y="0"
             width="100%"
             height="100%" />
          <use
             x="1092.2402"
             xlink:href="#BitstreamVeraSans-Roman-50"
             id="use355"
             style="stroke-linecap:butt;stroke-linejoin:round;stroke-miterlimit:100000"
             y="0"
             width="100%"
             height="100%" />
          <use
             x="1152.4805"
             xlink:href="#BitstreamVeraSans-Roman-61"
             id="use357"
             style="stroke-linecap:butt;stroke-linejoin:round;stroke-miterlimit:100000"
             y="0"
             width="100%"
             height="100%" />
          <use
             x="1213.7598"
             xlink:href="#BitstreamVeraSans-Roman-74"
             id="use359"
             style="stroke-linecap:butt;stroke-linejoin:round;stroke-miterlimit:100000"
             y="0"
             width="100%"
             height="100%" />
          <use
             x="1252.9688"
             xlink:href="#BitstreamVeraSans-Roman-68"
             id="use361"
             style="stroke-linecap:butt;stroke-linejoin:round;stroke-miterlimit:100000"
             y="0"
             width="100%"
             height="100%" />
        </g>
      </g>
    </g>
  </g>
  <defs
     id="defs363">
    <clipPath
       id="pf432fca413">
      <rect
         height="345.6"
         width="446.4"
         x="72.0"
         y="43.2"
         id="rect366" />
    </clipPath>
  </defs>
</svg>
